<svg height="512pt" viewBox="-51 0 512 512.04331" width="512pt" xmlns="http://www.w3.org/2000/svg"><path d="m350.488281 352.898438c-3.113281-.777344-6.164062-1.773438-9.132812-2.988282 0 0 .425781 1.707032 1.367187 4.523438 3.328125 9.554687 12.96875 31.574218 32.765625 38.144531-11.683593 7.195313-25.808593 9.292969-39.082031 5.800781-4.308594-1.3125-8.394531-3.269531-12.117188-5.800781 0 0 0 3.070313.425782 7.59375 1.109375 10.582031 4.695312 29.097656 16.640625 35.070313-11.734375 2.164062-23.71875 2.625-35.582031 1.367187-8.914063-.578125-17.394532-4.054687-24.152344-9.898437 0 0-.765625 4.007812-1.449219 9.898437-1.367187 13.140625-1.792969 35.414063 9.984375 41.300781-10.242188-.132812-20.4375-1.449218-30.378906-3.925781-8.421875-1.410156-15.925782-6.144531-20.820313-13.140625-.179687 4.652344-1.042969 9.253906-2.5625 13.652344-4.542969 14.644531-16.597656 25.71875-31.570312 29.015625-4.488281-1.09375-8.796875-2.820313-12.800781-5.121094-12.851563-8.25-20.824219-22.285156-21.335938-37.546875-5.46875 7.53125-13.804688 12.472656-23.039062 13.652344-9.238282 2.132812-18.679688 3.277344-28.160157 3.414062 1.847657-.964844 3.472657-2.300781 4.78125-3.925781 10.496094-13.398437 3.753907-47.273437 3.753907-47.273437-6.757813 5.84375-15.238282 9.320312-24.148438 9.898437-8.507812.984375-17.097656.984375-25.601562 0-5.972657-.597656-9.984376-1.367187-9.984376-1.367187 17.066407-8.53125 17.066407-42.664063 17.066407-42.664063-7.660157 5.203125-16.769531 7.863281-26.027344 7.59375-3.949219-.164063-7.871094-.761719-11.691406-1.792969-4.742188-1.292968-9.28125-3.246094-13.480469-5.800781 25.597656-8.535156 34.132812-42.667969 34.132812-42.667969-8.488281 3.671875-17.742187 5.222656-26.964843 4.523438-2.636719-.222656-5.242188-.738282-7.765625-1.535156h-.085938c-10.554687-3.269532-19.46875-10.441407-24.917968-20.054688 25.601562 8.53125 42.667968-25.601562 42.667968-25.601562-28.585937-5.714844-34.21875-22.867188-34.730468-33.621094-.226563-3.027344-.023438-6.070313.597656-9.042969 5.316406 2.527344 10.789062 4.722656 16.382812 6.570313 8.363282 3.023437 17.222656 4.441406 26.113282 4.179687-.597657-5.886719-1.535157-11.691406-2.5625-17.492187-.9375-4.863282-1.789063-9.8125-2.558594-14.761719-1.023438-5.976563-1.792969-12.035157-2.472656-18.09375-.855469-7.765625-1.453126-15.527344-1.792969-23.292969-.085938-2.136719-.171875-4.183594-.257813-6.316406 9.777344 2.871094 20.324219-.308594 26.882813-8.105469l34.984375-43.4375c11.136718-13.933594 25.523437-24.921875 41.898437-32h102.230469c16.375 7.078125 30.761719 18.066406 41.898438 32l34.988281 43.4375c6.554687 7.796875 17.101562 10.976563 26.878906 8.105469-.085937 2.132812-.171875 4.179687-.257813 6.316406-.339843 7.765625-.9375 15.527344-1.789062 23.292969-.597656 6.058593-1.453125 12.117187-2.476562 18.09375-.769532 4.949219-1.621094 9.898437-2.558594 14.761719-.769532 4.4375-1.539063 8.875-2.050782 13.3125-.167968 1.363281-.339843 2.816406-.511718 4.179687 5.886718.347656 11.789062-.226563 17.496094-1.707031 8.617187-2.164063 16.992187-5.195313 25-9.042969 0 0 8.535156 34.132813-34.132813 42.664063 0 0 17.066406 34.132812 42.667969 25.601562-9.96875 17.800781-31.054688 26.167969-50.519532 20.054688zm0 0" fill="#dfc49c"/><path d="m375.488281 332.84375c-5.449219 9.613281-14.359375 16.785156-24.917969 20.054688h-.082031c-2.527343.796874-5.128906 1.3125-7.765625 1.535156-9.222656.699218-18.476562-.851563-26.96875-4.523438 0 0 8.535156 34.132813 34.136719 42.667969-4.203125 2.554687-8.738281 4.507813-13.484375 5.800781-3.816406 1.03125-7.738281 1.628906-11.691406 1.792969-9.257813.269531-18.363282-2.390625-26.027344-7.59375 0 0 0 34.132813 17.066406 42.664063 0 0-4.007812.769531-9.980468 1.367187-8.507813.984375-17.097657.984375-25.601563 0-8.914063-.578125-17.394531-4.054687-24.148437-9.898437 0 0-6.742188 33.875 3.753906 47.273437 1.304687 1.625 2.933594 2.960937 4.777344 3.925781-9.480469-.136718-18.917969-1.28125-28.160157-3.414062-9.230469-1.179688-17.566406-6.121094-23.039062-13.652344-.507813 15.261719-8.484375 29.296875-21.332031 37.546875-12.851563-8.25-20.824219-22.285156-21.335938-37.546875-5.46875 7.53125-13.804688 12.472656-23.039062 13.652344-1.519532-4.398438-2.382813-9-2.558594-13.652344-4.898438 6.996094-12.398438 11.730469-20.820313 13.140625 10.496094-13.398437 3.753907-47.273437 3.753907-47.273437-6.757813 5.84375-15.238282 9.320312-24.148438 9.898437-.683594-5.890625-1.453125-9.898437-1.453125-9.898437-6.753906 5.84375-15.234375 9.320312-24.148437 9.898437-5.972657-.597656-9.984376-1.367187-9.984376-1.367187 17.066407-8.53125 17.066407-42.664063 17.066407-42.664063-7.660157 5.203125-16.769531 7.863281-26.027344 7.59375.425781-4.523437.425781-7.59375.425781-7.59375-3.722656 2.53125-7.808594 4.488281-12.117187 5.800781-4.742188-1.292968-9.28125-3.246094-13.480469-5.800781 25.597656-8.535156 34.132812-42.667969 34.132812-42.667969-8.488281 3.671875-17.742187 5.222656-26.964843 4.523438.9375-2.816406 1.363281-4.523438 1.363281-4.523438-2.964844 1.214844-6.015625 2.210938-9.128906 2.988282h-.085938c-10.554687-3.269532-19.46875-10.441407-24.917968-20.054688 25.601562 8.53125 42.667968-25.601562 42.667968-25.601562-28.585937-5.714844-34.21875-22.867188-34.730468-33.621094 5.707031 1.480468 11.609374 2.054687 17.492187 1.707031-.167969-1.363281-.339844-2.816406-.511719-4.179687 8.363282 3.023437 17.222656 4.441406 26.113282 4.179687-.597657-5.886719-1.535157-11.691406-2.5625-17.492187-.9375-4.863282-1.789063-9.8125-2.558594-14.761719-1.023438-5.976563-1.792969-12.035157-2.472656-18.09375-.855469-7.765625-1.453126-15.527344-1.792969-23.292969-.085938-2.136719-.171875-4.183594-.257813-6.316406 9.777344 2.871094 20.324219-.308594 26.882813-8.105469l34.984375-43.4375c11.136718-13.933594 25.523437-24.921875 41.898437-32h76.628907c16.375 7.078125 30.765624 18.066406 41.898437 32l34.988281 43.4375c6.558594 7.796875 17.105469 10.976563 26.878906 8.105469-.085937 2.132812-.167968 4.179687-.253906 6.316406-.34375 7.765625-.941406 15.527344-1.792968 23.292969-.597657 6.058593-1.449219 12.117187-2.476563 18.09375-.765625 4.949219-1.621094 9.898437-2.558594 14.761719-1.023437 5.800781-1.960937 11.605468-2.558593 17.492187 8.886718.261719 17.746093-1.15625 26.109374-4.179687 5.59375-1.847657 11.066407-4.042969 16.386719-6.570313.621094 2.972656.820313 6.015625.597657 9.042969-.511719 10.753906-6.144532 27.90625-34.730469 33.621094 0 0 17.066406 34.132812 42.664062 25.601562zm0 0" fill="#ffe0b2"/><g fill="#4527a0"><path d="m33.984375 275.328125c-5.882813.347656-11.785156-.226563-17.492187-1.707031-.226563-3.027344-.023438-6.070313.597656-9.042969 7.195312 3.429687 14.675781 6.230469 22.355468 8.359375-.921874.261719-1.8125.632812-2.644531 1.109375-.832031.632813-1.792969 1.066406-2.816406 1.28125zm0 0"/><path d="m33.558594 352.898438c3.113281-.777344 6.164062-1.773438 9.128906-2.988282 0 0-.425781 1.707032-1.363281 4.523438-2.636719-.222656-5.242188-.738282-7.765625-1.535156zm0 0"/><path d="m47.636719 398.378906c4.308593-1.3125 8.394531-3.269531 12.117187-5.800781 0 0 0 3.070313-.425781 7.59375-3.949219-.164063-7.871094-.761719-11.691406-1.792969zm0 0"/><path d="m102.421875 426.710938s.769531 4.007812 1.453125 9.898437c-8.507812.984375-17.097656.984375-25.601562 0 8.914062-.578125 17.394531-4.054687 24.148437-9.898437zm0 0"/><path d="m145.089844 460.84375c.175781 4.652344 1.039062 9.253906 2.558594 13.652344-9.238282 2.132812-18.679688 3.277344-28.160157 3.414062 1.847657-.964844 3.472657-2.300781 4.78125-3.925781 8.421875-1.410156 15.921875-6.144531 20.820313-13.140625zm0 0"/><path d="m204.824219 332.84375c13.824219 8.371094 29.214843 13.832031 45.226562 16.042969-3.65625.703125-7.371093 1.046875-11.09375 1.023437-16.203125-.152344-32.191406-3.695312-46.933593-10.410156 4.445312-1.859375 8.726562-4.085938 12.800781-6.65625zm0 0"/><path d="m345.109375 272.769531c-3.328125.953125-6.722656 1.667969-10.152344 2.132813 2.5625-2.839844 6.664063-3.703125 10.152344-2.132813zm0 0"/></g><path d="m225.300781 291.882812c30.546875 4.90625 58.878907 18.984376 81.238281 40.363282.257813.171875.425782.425781.683594.597656-11.460937 11.019531-26.765625 17.140625-42.667968 17.066406-19.480469-.261718-38.601563-5.296875-55.6875-14.667968-2.511719-1.402344-5.574219-1.402344-8.089844 0-17.085938 9.371093-36.207032 14.40625-55.6875 14.667968-15.902344.074219-31.203125-6.046875-42.667969-17.066406.257813-.171875.425781-.425781.683594-.597656 22.359375-21.378906 50.691406-35.457032 81.238281-40.363282zm0 0" fill="#9d27b0"/><path d="m158.316406 219.777344c2.511719 2.984375 3.871094 6.765625 3.839844 10.664062.027344 8.921875-6.820312 16.359375-15.710938 17.070313-8.894531.707031-16.832031-5.554688-18.214843-14.367188-1.386719-8.8125 4.25-17.203125 12.933593-19.257812" fill="#ffeb3a"/><path d="m268.414062 213.886719c8.65625 2.066406 14.269532 10.441406 12.882813 19.234375-1.382813 8.792968-9.304687 15.039062-18.175781 14.335937-8.875-.703125-15.710938-8.113281-15.699219-17.015625-.035156-3.898437 1.328125-7.679687 3.839844-10.664062" fill="#ffeb3a"/><path d="m350.570312 352.898438c19.464844 6.113281 40.550782-2.253907 50.519532-20.054688-25.601563 8.53125-42.667969-25.601562-42.667969-25.601562 42.667969-8.53125 34.132813-42.664063 34.132813-42.664063-8.007813 3.847656-16.382813 6.878906-25 9.042969-5.707032 1.480468-11.609376 2.054687-17.496094 1.707031-1.398438-.347656-2.707032-.984375-3.839844-1.875-.355469-.25-.726562-.476563-1.109375-.683594-3.328125.953125-6.722656 1.667969-10.152344 2.132813-1.09375 1.308594-1.777343 2.910156-1.964843 4.609375-1.792969 16.296875-7.59375 41.46875-25.769532 53.332031-11.460937 11.019531-26.765625 17.140625-42.667968 17.066406-4.851563.015625-9.703126-.328125-14.503907-1.023437-3.65625.703125-7.371093 1.046875-11.09375 1.023437-16.203125-.152344-32.191406-3.695312-46.933593-10.410156-14.746094 6.714844-30.734376 10.257812-46.933594 10.410156-3.722656.023438-7.4375-.320312-11.09375-1.023437-11.898438-2.046875-22.902344-7.640625-31.574219-16.042969-18.261719-11.863281-24.660156-36.863281-26.878906-52.90625-.441407-2.878906-2.3125-5.335938-4.96875-6.523438-2.65625-1.191406-5.734375-.953124-8.171875.632813-.832032.632813-1.796875 1.066406-2.816406 1.28125-4.195313.273437-8.40625.042969-12.542969-.683594l-.085938-.082031c-2.476562-.429688-5.035156-.941406-7.511719-1.625-.921874.261719-1.8125.632812-2.644531 1.109375-.832031.632813-1.792969 1.066406-2.816406 1.28125-5.882813.347656-11.785156-.226563-17.492187-1.707031.511718 10.753906 6.144531 27.90625 34.730468 33.621094 0 0-17.066406 34.132812-42.667968 25.601562 5.449218 9.613281 14.363281 16.785156 24.917968 20.054688h.085938c3.113281-.777344 6.164062-1.773438 9.128906-2.988282 0 0-.425781 1.707032-1.363281 4.523438 9.222656.699218 18.476562-.851563 26.964843-4.523438 0 0-8.535156 34.132813-34.132812 42.667969 4.199219 2.554687 8.738281 4.507813 13.480469 5.800781 4.308593-1.3125 8.394531-3.269531 12.117187-5.800781 0 0 0 3.070313-.425781 7.59375 9.257813.269531 18.367187-2.390625 26.027344-7.59375 0 0 0 34.132813-17.066407 42.664063 0 0 4.011719.769531 9.984376 1.367187 8.914062-.578125 17.394531-4.054687 24.148437-9.898437 0 0 .769531 4.007812 1.453125 9.898437 8.910156-.578125 17.390625-4.054687 24.148438-9.898437 0 0 6.742187 33.875-3.753907 47.273437 8.421875-1.410156 15.921875-6.144531 20.820313-13.140625.175781 4.652344 1.039062 9.253906 2.558594 13.652344 9.234374-1.179688 17.570312-6.121094 23.039062-13.652344.511719 15.261719 8.484375 29.296875 21.335938 37.546875 4.003906 2.300781 8.3125 4.027344 12.800781 5.121094 14.972656-3.296875 27.027343-14.371094 31.570312-29.015625 1.519531-4.398438 2.382813-9 2.5625-13.652344 4.894531 6.996094 12.398438 11.730469 20.820313 13.140625 9.941406 2.476563 20.136718 3.792969 30.378906 3.925781-11.777344-5.886718-11.351562-28.160156-9.984375-41.300781.683594-5.890625 1.449219-9.898437 1.449219-9.898437 6.757812 5.84375 15.238281 9.320312 24.152344 9.898437 11.863281 1.257813 23.847656.796875 35.582031-1.367187-11.945313-5.972657-15.53125-24.488282-16.640625-35.070313-.425782-4.523437-.425782-7.59375-.425782-7.59375 3.722657 2.53125 7.808594 4.488281 12.117188 5.800781 13.273438 3.492188 27.398438 1.394532 39.082031-5.800781-19.796875-6.570313-29.4375-28.589844-32.765625-38.144531-.941406-2.816406-1.367187-4.523438-1.367187-4.523438 2.96875 1.214844 6.019531 2.210938 9.132812 2.988282zm0 0" fill="#4527a0"/><path d="m375.488281 332.84375c-5.449219 9.613281-14.359375 16.785156-24.917969 20.054688h-.082031c-3.113281-.777344-6.164062-1.773438-9.132812-2.988282 0 0 .425781 1.707032 1.367187 4.523438-9.222656.699218-18.476562-.851563-26.96875-4.523438 0 0 8.535156 34.132813 34.136719 42.667969-4.203125 2.554687-8.738281 4.507813-13.484375 5.800781-4.308594-1.3125-8.394531-3.269531-12.117188-5.800781 0 0 0 3.070313.425782 7.59375-9.257813.269531-18.363282-2.390625-26.027344-7.59375 0 0 0 34.132813 17.066406 42.664063 0 0-4.007812.769531-9.980468 1.367187-8.914063-.578125-17.394532-4.054687-24.152344-9.898437 0 0-.765625 4.007812-1.449219 9.898437-8.914063-.578125-17.394531-4.054687-24.148437-9.898437 0 0-6.742188 33.875 3.753906 47.273437-8.421875-1.410156-15.925782-6.144531-20.820313-13.140625-.179687 4.652344-1.042969 9.253906-2.5625 13.652344-9.230469-1.179688-17.566406-6.121094-23.039062-13.652344-.507813 15.261719-8.484375 29.296875-21.332031 37.546875-12.851563-8.25-20.824219-22.285156-21.335938-37.546875-5.46875 7.53125-13.804688 12.472656-23.039062 13.652344-1.519532-4.398438-2.382813-9-2.558594-13.652344-4.898438 6.996094-12.398438 11.730469-20.820313 13.140625 10.496094-13.398437 3.753907-47.273437 3.753907-47.273437-6.757813 5.84375-15.238282 9.320312-24.148438 9.898437-.683594-5.890625-1.453125-9.898437-1.453125-9.898437-6.753906 5.84375-15.234375 9.320312-24.148437 9.898437-5.972657-.597656-9.984376-1.367187-9.984376-1.367187 17.066407-8.53125 17.066407-42.664063 17.066407-42.664063-7.660157 5.203125-16.769531 7.863281-26.027344 7.59375.425781-4.523437.425781-7.59375.425781-7.59375-3.722656 2.53125-7.808594 4.488281-12.117187 5.800781-4.742188-1.292968-9.28125-3.246094-13.480469-5.800781 25.597656-8.535156 34.132812-42.667969 34.132812-42.667969-8.488281 3.671875-17.742187 5.222656-26.964843 4.523438.9375-2.816406 1.363281-4.523438 1.363281-4.523438-2.964844 1.214844-6.015625 2.210938-9.128906 2.988282h-.085938c-10.554687-3.269532-19.46875-10.441407-24.917968-20.054688 25.601562 8.53125 42.667968-25.601562 42.667968-25.601562-28.585937-5.714844-34.21875-22.867188-34.730468-33.621094 5.707031 1.480468 11.609374 2.054687 17.492187 1.707031 1.023437-.214844 1.984375-.648437 2.816406-1.28125.832031-.476563 1.722657-.847656 2.644531-1.109375 2.476563.683594 5.035157 1.195312 7.511719 1.625l.085938.082031c4.136719.726563 8.347656.957031 12.542969.683594 1.019531-.214844 1.984374-.648437 2.816406-1.28125 2.4375-1.585937 5.515625-1.824219 8.171875-.632813 2.65625 1.1875 4.527343 3.644532 4.96875 6.523438 2.21875 16.042969 8.617187 41.042969 26.878906 52.90625 8.671875 8.402344 19.675781 13.996094 31.574219 16.042969 3.65625.703125 7.371094 1.046875 11.09375 1.023437 16.199218-.152344 32.1875-3.695312 46.933594-10.410156 14.742187 6.714844 30.730468 10.257812 46.933593 10.410156 3.722657.023438 7.4375-.320312 11.09375-1.023437 4.800781.695312 9.652344 1.039062 14.503907 1.023437 15.902343.074219 31.207031-6.046875 42.667968-17.066406 18.175782-11.863281 23.976563-37.035156 25.769532-53.332031.1875-1.699219.871093-3.300781 1.964843-4.609375 3.429688-.464844 6.824219-1.179688 10.152344-2.132813.382813.207031.753906.433594 1.109375.683594 1.132812.890625 2.441406 1.527344 3.839844 1.875 5.886718.347656 11.789062-.226563 17.496094-1.707031-.511719 10.753906-6.144532 27.90625-34.730469 33.621094 0 0 17.066406 34.132812 42.664062 25.601562zm0 0" fill="#673ab7"/><path d="m46.957031 274.5625c-2.476562-.429688-5.035156-.941406-7.511719-1.625 2.621094-.605469 5.375-.011719 7.511719 1.625zm0 0" fill="#673ab7"/><path d="m264.554688 477.910156c-9.480469-.136718-18.917969-1.28125-28.160157-3.414062 1.519531-4.398438 2.382813-9 2.5625-13.652344 4.894531 6.996094 12.398438 11.730469 20.820313 13.140625 1.304687 1.625 2.933594 2.960937 4.777344 3.925781zm0 0" fill="#673ab7"/><path d="m281.621094 426.710938c6.757812 5.84375 15.238281 9.320312 24.152344 9.898437-8.507813.984375-17.097657.984375-25.601563 0 .683594-5.890625 1.449219-9.898437 1.449219-9.898437zm0 0" fill="#673ab7"/><path d="m324.289062 392.578125c3.722657 2.53125 7.808594 4.488281 12.117188 5.800781-3.816406 1.03125-7.738281 1.628906-11.691406 1.792969-.425782-4.523437-.425782-7.59375-.425782-7.59375zm0 0" fill="#673ab7"/><path d="m341.355469 349.910156c2.96875 1.214844 6.019531 2.210938 9.132812 2.988282-2.527343.796874-5.128906 1.3125-7.765625 1.535156-.941406-2.816406-1.367187-4.523438-1.367187-4.523438zm0 0" fill="#673ab7"/><path d="m367.554688 273.621094c-5.707032 1.480468-11.609376 2.054687-17.496094 1.707031-1.398438-.347656-2.707032-.984375-3.839844-1.875-.355469-.25-.726562-.476563-1.109375-.683594 7.519531-2.058593 14.832031-4.800781 21.847656-8.191406.621094 2.972656.820313 6.015625.597657 9.042969zm0 0" fill="#673ab7"/><path d="m373.613281 132.054688c-1.921875-1.210938-3.949219-2.238282-6.058593-3.074219 7.363281-6.566407 12.046874-15.621094 13.140624-25.429688.394532-11.683593-5.585937-22.664062-15.617187-28.671875-7.902344-4.992187-17.230469-7.238281-26.539063-6.398437 1.964844-4.699219 2.921876-9.757813 2.816407-14.847657-.066407-10.832031-4.351563-21.207031-11.945313-28.929687-8.945312-7.574219-21.296875-9.695313-32.257812-5.546875-.417969.121094-.820313.292969-1.195313.515625-9.863281 3.761719-17.921875 11.148437-22.527343 20.648437-.820313-6.761718-3.25-13.226562-7.082032-18.859374-1.316406-1.917969-2.832031-3.691407-4.523437-5.289063-8.945313-7.574219-21.292969-9.699219-32.253907-5.546875-.414062.132812-.8125.304688-1.195312.511719-10.75 4.015625-19.300781 12.382812-23.550781 23.039062-2.550781-6.769531-6.996094-12.664062-12.800781-16.980469-3.609376-2.808593-7.644532-5.027343-11.949219-6.570312-7.921875-2.824219-16.605469-2.640625-24.402344.511719-2.886719 1.21875-5.542969 2.917969-7.851563 5.035156-6.492187 6.503906-10.582031 15.015625-11.605468 24.148437-3.914063-8.164062-10.425782-14.796874-18.519532-18.859374-1.660156-.925782-3.402343-1.695313-5.203124-2.304688-7.921876-2.820312-16.609376-2.640625-24.40625.515625-2.886719 1.214844-5.539063 2.917969-7.851563 5.03125-7.59375 7.722656-11.878906 18.097656-11.945313 28.929687-.105468 5.089844.851563 10.148438 2.816407 14.847657-9.308594-.839844-18.636719 1.40625-26.539063 6.398437-10.03125 6.007813-16.011718 16.988282-15.617187 28.671875 1.097656 9.808594 5.777343 18.863281 13.144531 25.429688-2.113281.835937-4.140625 1.863281-6.0625 3.074219-10.019531 6.058593-15.988281 17.054687-15.613281 28.757812 1.550781 12.390625 8.5625 23.441406 19.113281 30.121094 1.386719.882812 2.84375 1.65625 4.351562 2.304687 11.03125 5.917969 24.6875 3.441407 32.941407-5.972656l34.984375-43.4375c11.136718-13.933594 25.523437-24.921875 41.898437-32h102.230469c16.375 7.078125 30.761719 18.066406 41.898438 32l34.988281 43.4375c1.984375 2.5 4.488281 4.535156 7.335937 5.972656 3.730469 2.070313 7.9375 3.128907 12.203125 3.070313 7.949219-.167969 15.601563-3.058594 21.675781-8.191406 8.421876-6.777344 13.871094-16.574219 15.1875-27.304688.375-11.703125-5.59375-22.699219-15.613281-28.757812zm0 0" fill="#4527a0"/><path d="m363.628906 160.8125c-1.320312 10.730469-6.765625 20.527344-15.191406 27.304688-2.5 2.089843-5.289062 3.816406-8.277344 5.121093-2.847656-1.4375-5.351562-3.472656-7.335937-5.972656l-34.988281-43.4375c-11.136719-13.933594-25.523438-24.921875-41.898438-32h-102.230469c-16.375 7.078125-30.761719 18.066406-41.898437 32l-34.984375 43.4375c-8.253907 9.414063-21.910157 11.890625-32.941407 5.972656-1.507812-.648437-2.964843-1.421875-4.351562-2.304687-10.550781-6.679688-17.5625-17.730469-19.113281-30.121094-.375-11.703125 5.59375-22.699219 15.613281-28.757812 1.921875-1.210938 3.949219-2.238282 6.0625-3.074219-7.367188-6.566407-12.046875-15.621094-13.144531-25.429688-.394531-11.683593 5.585937-22.664062 15.617187-28.671875 7.902344-4.992187 17.230469-7.238281 26.539063-6.398437-1.964844-4.699219-2.921875-9.757813-2.816407-14.847657.066407-10.832031 4.351563-21.207031 11.945313-28.929687 2.3125-2.113281 4.964844-3.816406 7.851563-5.03125 7.796874-3.15625 16.484374-3.335937 24.40625-.515625 1.800781.609375 3.542968 1.378906 5.203124 2.304688 8.09375 4.0625 14.605469 10.695312 18.519532 18.859374 1.023437-9.132812 5.113281-17.644531 11.605468-24.148437 2.308594-2.117187 4.964844-3.816406 7.851563-5.035156 7.796875-3.152344 16.480469-3.335938 24.402344-.511719 4.304687 1.542969 8.339843 3.761719 11.949219 6.570312 5.804687 4.316407 10.25 10.210938 12.800781 16.980469 4.25-10.65625 12.800781-19.023437 23.550781-23.039062.382812-.207031.78125-.378907 1.195312-.511719 10.960938-4.152344 23.308594-2.027344 32.253907 5.546875 1.691406 1.597656 3.207031 3.371094 4.523437 5.289063 3.832032 5.632812 6.261719 12.097656 7.082032 18.859374 4.605468-9.5 12.664062-16.886718 22.527343-20.648437 2.886719 1.214844 5.542969 2.917969 7.851563 5.03125 7.59375 7.722656 11.882812 18.097656 11.945312 28.929687.109375 5.089844-.851562 10.148438-2.8125 14.847657 9.308594-.839844 18.632813 1.40625 26.535156 6.398437 10.03125 6.007813 16.011719 16.988282 15.617188 28.671875-1.09375 9.808594-5.773438 18.863281-13.140625 25.429688 2.109375.835937 4.136719 1.863281 6.058594 3.074219 10.019531 6.058593 15.992187 17.054687 15.617187 28.757812zm0 0" fill="#673ab7"/><path d="m68.117188 359.039062c-4.261719 0-7.871094-3.144531-8.453126-7.367187-.097656-.554687-.152343-1.113281-.164062-1.675781 0-4.488282 3.472656-8.210938 7.949219-8.515625 4.476562-.308594 8.425781 2.90625 9.039062 7.351562.097657.554688.152344 1.113281.160157 1.675781 0 4.710938-3.816407 8.53125-8.53125 8.53125zm0 0"/><path d="m341.527344 359.039062c-4.714844 0-8.535156-3.820312-8.535156-8.53125.011718-.570312.066406-1.140624.171874-1.699218.632813-4.433594 4.578126-7.621094 9.042969-7.308594 4.464844.3125 7.929688 4.019531 7.9375 8.496094-.007812.570312-.066406 1.136718-.171875 1.699218-.589844 4.210938-4.191406 7.34375-8.445312 7.34375zm0 0"/><path d="m350.066406 283.863281c-.285156 0-.574218-.015625-.863281-.042969-4.691406-.476562-8.105469-4.660156-7.636719-9.351562.648438-6.371094 1.65625-12.46875 2.648438-18.113281.949218-4.902344 1.777344-9.75 2.53125-14.589844 1.0625-6.183594 1.867187-12.058594 2.417968-17.621094.835938-7.671875 1.429688-15.324219 1.757813-22.828125l.253906-6.273437c.027344-2.253907.964844-4.40625 2.601563-5.960938 1.640625-1.550781 3.835937-2.375 6.089844-2.277343 4.640624.070312 8.359374 3.847656 8.363281 8.484374l-.261719 6.734376c-.34375 7.917968-.960938 15.941406-1.832031 23.894531-.582031 5.863281-1.441407 12.152343-2.546875 18.601562-.765625 4.925781-1.636719 9.980469-2.59375 14.941407-.914063 5.179687-1.859375 10.902343-2.449219 16.726562-.4375 4.351562-4.101563 7.667969-8.480469 7.675781zm0 0"/><path d="m59.578125 283.863281c-4.378906-.003906-8.042969-3.320312-8.484375-7.675781-.589844-5.824219-1.535156-11.550781-2.476562-16.871094-.933594-4.820312-1.800782-9.875-2.589844-14.929687-1.027344-6.003907-1.820313-12.226563-2.519532-18.445313-.875-7.980468-1.492187-16.003906-1.839843-23.878906l-.253907-6.355469c-.089843-2.261719.722657-4.464843 2.257813-6.125 1.539063-1.664062 3.671875-2.644531 5.933594-2.734375 2.269531-.113281 4.484375.691406 6.152343 2.234375 1.667969 1.542969 2.640626 3.6875 2.707032 5.960938l.253906 6.3125c.332031 7.460937.921875 15.117187 1.75 22.699219.664062 5.867187 1.40625 11.761718 2.40625 17.578124.773438 4.976563 1.601562 9.820313 2.527344 14.582032 1.015625 5.785156 2.027344 11.886718 2.671875 18.257812.472656 4.6875-2.945313 8.871094-7.632813 9.347656-.289062.027344-.582031.042969-.863281.042969zm0 0"/><path d="m204.832031 512.042969c-.699219 0-1.398437-.085938-2.078125-.253907-17.757812-4.085937-32.0625-17.203124-37.667968-34.542968-14.363282 6.300781-29.914063 9.4375-45.597657 9.195312-3.957031.003906-7.398437-2.71875-8.304687-6.570312-.910156-3.851563.949218-7.824219 4.488281-9.59375 5.382813-2.691406 6.601563-16.359375 5.65625-29.289063-21.371094 8.828125-50.765625 3.414063-54.714844 2.621094-3.574219-.714844-6.300781-3.621094-6.78125-7.234375-.484375-3.613281 1.378907-7.132812 4.640625-8.765625 6.335938-5.207031 10.269532-12.78125 10.886719-20.960937-15.621094 4.089843-32.234375 1.566406-45.9375-6.972657-2.710937-1.808593-4.15625-5-3.722656-8.230469.429687-3.230468 2.664062-5.933593 5.757812-6.964843 10.027344-4.175781 18.105469-11.992188 22.613281-21.878907-21.441406 3.625-42.8125-6.808593-53.148437-25.941406-1.542969-3.085937-1.074219-6.800781 1.1875-9.410156 2.261719-2.605469 5.871094-3.59375 9.148437-2.503906 11.167969 3.738281 20.757813-5.03125 26.523438-12.4375-9.660156-3.265625-17.960938-9.65625-23.582031-18.164063-5.734375-9.488281-7.660157-20.792969-5.386719-31.640625.628906-2.507812 2.359375-4.597656 4.710938-5.679687 2.351562-1.082031 5.066406-1.035157 7.378906.121093 12.613281 6.28125 34.46875 13.085938 43.570312 8.53125 2.726563-1.363281 5.976563-1.167968 8.519532.511719 2.546874 1.679688 4 4.589844 3.816406 7.632813-.179688 3.042968-1.972656 5.757812-4.699219 7.121094-13.578125 6.796874-33.621094 1.542968-46.542969-3.269532.578125 2.738282 1.648438 5.351563 3.15625 7.707032 5.863282 7.660156 14.59375 12.605468 24.175782 13.695312 2.609374.523438 4.824218 2.230469 5.992187 4.621094 1.167969 2.386718 1.15625 5.183594-.035156 7.5625-.625 1.25-12.015625 23.546875-31.316407 30.011718 11.574219 6.613282 25.699219 6.957032 37.578126.914063 2.976562-1.191406 6.371093-.613281 8.785156 1.496094 2.414062 2.105469 3.441406 5.390625 2.664062 8.5-4.011718 14.855469-11.988281 28.339843-23.074218 39.003906 9.414062 1.863281 19.183593-.121094 27.128906-5.507813 2.617187-1.746093 5.984375-1.910156 8.761718-.425781 2.773438 1.484375 4.507813 4.378907 4.507813 7.527344-.015625 12.46875-2.757813 24.789063-8.039063 36.085937 12.867188.628907 28.738282-.582031 36.136719-7.988281 2.226563-2.222656 5.496094-3.042969 8.507813-2.132812 3.007812.914062 5.273437 3.40625 5.894531 6.492187 3.050781 14.175782 3.058594 28.835938.019531 43.015625 12.03125-1.785156 23.835938-5.40625 26.644532-11.023437 1.769531-3.542969 5.742187-5.402344 9.59375-4.492188 3.855468.910156 6.574218 4.351563 6.574218 8.308594.421875 16.382812 11.75 30.464844 27.667969 34.382812 4.1875 1.035157 6.941406 5.039063 6.417969 9.320313-.523438 4.28125-4.164063 7.5-8.476563 7.496094zm0 0"/><path d="m204.8125 512.042969c-4.304688-.007813-7.929688-3.222657-8.453125-7.496094s2.21875-8.265625 6.394531-9.3125c16.007813-3.78125 27.402344-17.945313 27.667969-34.390625 0-3.957031 2.722656-7.398438 6.574219-8.308594 3.851562-.910156 7.824218.949219 9.59375 4.492188 2.808594 5.617187 14.617187 9.238281 26.644531 11.023437-3.039063-14.179687-3.03125-28.839843.019531-43.015625.621094-3.085937 2.886719-5.578125 5.898438-6.492187 3.007812-.910157 6.277344-.089844 8.503906 2.132812 7.433594 7.429688 23.316406 8.613281 36.144531 8.007813-5.285156-11.304688-8.03125-23.628906-8.046875-36.105469.003906-3.148437 1.734375-6.039063 4.507813-7.523437 2.777343-1.484376 6.140625-1.324219 8.761719.421874 7.945312 5.367188 17.699218 7.34375 27.105468 5.492188-11.074218-10.667969-19.042968-24.144531-23.050781-38.988281-.777344-3.109375.25-6.394531 2.664063-8.503907 2.417968-2.105468 5.808593-2.683593 8.785156-1.492187 11.875 6.023437 25.984375 5.675781 37.546875-.925781-19.277344-6.472656-30.65625-28.75-31.28125-30-1.191407-2.378906-1.203125-5.175782-.035157-7.5625 1.167969-2.390625 3.382813-4.097656 5.992188-4.621094 9.652344-1.085938 18.433594-6.097656 24.277344-13.855469 1.457031-2.320312 2.496094-4.875 3.074218-7.550781-12.921874 4.800781-32.957031 10.078125-46.5625 3.273438-2.726562-1.363282-4.519531-4.078126-4.703124-7.121094-.183594-3.042969 1.273437-5.953125 3.816406-7.632813 2.546875-1.679687 5.792968-1.875 8.519531-.511719 10.015625 5.011719 33.675781-3.582031 43.566406-8.53125 2.316407-1.160156 5.03125-1.203124 7.382813-.121093 2.351562 1.078125 4.085937 3.171875 4.714844 5.679687 2.269531 10.847656.34375 22.15625-5.390626 31.640625-5.621093 8.507813-13.917968 14.898438-23.582031 18.164063 5.769531 7.402344 15.382813 16.171875 26.523438 12.4375 3.277343-1.089844 6.886719-.101563 9.148437 2.503906 2.261719 2.609375 2.730469 6.324219 1.1875 9.410156-10.335937 19.132813-31.703125 29.5625-53.148437 25.941406 4.503906 9.886719 12.585937 17.703126 22.613281 21.878907 3.09375 1.03125 5.328125 3.734375 5.761719 6.964843.429687 3.230469-1.015625 6.421876-3.726563 8.230469-13.695312 8.535157-30.296875 11.058594-45.910156 6.980469.621094 8.167969 4.542969 15.734375 10.859375 20.953125 3.261719 1.632813 5.125 5.152344 4.640625 8.765625s-3.207031 6.519531-6.78125 7.234375c-3.945312.792969-33.3125 6.214844-54.699219-2.613281-.9375 12.933594.277344 26.601562 5.636719 29.28125 3.539062 1.769531 5.398438 5.738281 4.492188 9.59375-.910157 3.851562-4.347657 6.570312-8.304688 6.570312-15.683594.242188-31.234375-2.894531-45.597656-9.199218-5.605469 17.339843-19.910156 30.457031-37.667969 34.546874-.679687.167969-1.378906.253907-2.078125.253907zm0 0"/><path d="m145.089844 358.441406c-18.285156.074219-35.867188-7.042968-48.945313-19.820312-1.582031-1.714844-2.390625-4.007813-2.238281-6.335938.152344-2.332031 1.253906-4.496094 3.046875-5.992187.191406-.179688.382813-.355469.582031-.519531 23.570313-22.441407 53.394532-37.199219 85.535156-42.328126 3.011719-.453124 6.042969.730469 7.945313 3.113282 1.902344 2.382812 2.386719 5.601562 1.277344 8.4375-1.113281 2.839844-3.65625 4.871094-6.671875 5.328125-25.867188 4.105469-50.101563 15.269531-70.03125 32.265625 8.761718 5.753906 19.019531 8.808594 29.5 8.785156 19.394531-.246094 38.375-5.640625 55-15.632812 3.917968-2.558594 9.171875-1.484376 11.769531 2.410156 2.59375 3.898437 1.570313 9.15625-2.304687 11.789062-19.425782 11.875-41.699219 18.265625-64.464844 18.5zm0 0"/><path d="m264.554688 358.441406c-22.765626-.234375-45.039063-6.625-64.464844-18.5-3.871094-2.632812-4.898438-7.890625-2.300782-11.789062 2.597657-3.894532 7.847657-4.96875 11.765626-2.410156 16.648437 9.945312 35.613281 15.335937 55 15.632812 10.484374.023438 20.742187-3.03125 29.5-8.789062-19.929688-16.992188-44.160157-28.15625-70.027344-32.261719-4.660156-.703125-7.867188-5.050781-7.164063-9.710938.703125-4.660156 5.054688-7.867187 9.714844-7.164062 32.210937 5.144531 62.097656 19.957031 85.695313 42.480469.132812.113281.261718.226562.378906.335937 1.808594 1.488281 2.921875 3.65625 3.085937 5.996094.160157 2.339843-.648437 4.640625-2.234375 6.363281-13.082031 12.777344-30.664062 19.894531-48.949218 19.816406zm0 0"/><path d="m204.824219 307.242188c-19.144531 0-34.136719-11.246094-34.136719-25.597657 0-4.714843 3.820312-8.535156 8.535156-8.535156 4.710938 0 8.53125 3.820313 8.53125 8.535156 0 3.476563 6.652344 8.53125 17.070313 8.53125 10.414062 0 17.066406-5.054687 17.066406-8.53125 0-4.714843 3.820313-8.535156 8.53125-8.535156 4.714844 0 8.535156 3.820313 8.535156 8.535156 0 14.351563-14.992187 25.597657-34.132812 25.597657zm0 0"/><path d="m174.828125 230.441406c-32.171875 0-65.394531-24.597656-66.839844-25.683594-3.691406-2.847656-4.410156-8.136718-1.617187-11.867187 2.792968-3.734375 8.070312-4.535156 11.84375-1.792969.316406.230469 31.976562 23.574219 58.949218 22.214844 4.667969-.1875 8.617188 3.410156 8.863282 8.074219.25 4.660156-3.296875 8.65625-7.957032 8.96875-1.078124.058593-2.160156.085937-3.242187.085937zm0 0"/><path d="m145.089844 256.042969c-13.003906.015625-23.945313-9.726563-25.433594-22.644531-1.488281-12.914063 6.957031-24.890626 19.621094-27.828126 3-.75 6.167968.183594 8.285156 2.4375 2.113281 2.253907 2.847656 5.476563 1.910156 8.425782-.9375 2.945312-3.390625 5.15625-6.421875 5.773437-4.300781 1.074219-7.058593 5.273438-6.335937 9.648438.726562 4.375 4.6875 7.460937 9.105468 7.089843 4.417969-.367187 7.8125-4.066406 7.800782-8.503906.03125-1.867187-.609375-3.683594-1.796875-5.125-1.980469-2.316406-2.570313-5.515625-1.554688-8.390625 1.019531-2.871093 3.496094-4.984375 6.492188-5.539062 3-.554688 6.066406.535156 8.042969 2.851562 3.824218 4.53125 5.910156 10.277344 5.882812 16.203125-.015625 14.132813-11.464844 25.585938-25.597656 25.601563zm0 0"/><path d="m234.75 230.441406c-1.082031 0-2.164062-.027344-3.242188-.082031-3.070312-.125-5.839843-1.894531-7.246093-4.628906s-1.230469-6.011719.457031-8.582031c1.6875-2.570313 4.628906-4.035157 7.699219-3.832032 27.1875 1.445313 58.621093-21.972656 58.9375-22.210937 3.773437-2.695313 9.007812-1.886719 11.789062 1.824219 2.777344 3.710937 2.085938 8.964843-1.558593 11.828124-1.445313 1.085938-34.664063 25.683594-66.835938 25.683594zm0 0"/><path d="m264.488281 256.042969c-14.132812-.015625-25.582031-11.46875-25.597656-25.601563-.03125-5.925781 2.054687-11.671875 5.878906-16.203125 1.976563-2.316406 5.042969-3.40625 8.042969-2.851562 2.996094.554687 5.472656 2.667969 6.492188 5.539062 1.015624 2.875.425781 6.074219-1.554688 8.390625-1.1875 1.441406-1.820312 3.261719-1.789062 5.125-.03125 4.457032 3.371093 8.183594 7.8125 8.558594 4.4375.375 8.417968-2.726562 9.140624-7.121094.722657-4.394531-2.058593-8.605468-6.382812-9.667968-4.503906-1.125-7.28125-5.640626-6.253906-10.167969 1.023437-4.523438 5.480468-7.402344 10.027344-6.472657 12.660156 2.941407 21.101562 14.917969 19.613281 27.832032-1.488281 12.914062-12.429688 22.65625-25.429688 22.640625zm0 0"/><path d="m221.890625 179.242188h-34.136719c-4.710937 0-8.53125-3.820313-8.53125-8.53125 0-4.714844 3.820313-8.535157 8.53125-8.535157h34.136719c4.710937 0 8.53125 3.820313 8.53125 8.535157 0 4.710937-3.820313 8.53125-8.53125 8.53125zm0 0"/><path d="m162.15625 418.175781c-4.714844 0-8.535156-3.820312-8.535156-8.53125 0-4.714843 3.820312-8.535156 8.535156-8.535156 4.710938-.003906 8.527344-3.824219 8.53125-8.53125v-8.535156c0-4.710938 3.820312-8.53125 8.535156-8.53125 4.710938 0 8.53125 3.820312 8.53125 8.53125v8.535156c-.011718 14.128906-11.464844 25.582031-25.597656 25.597656zm0 0"/><path d="m247.488281 418.175781c-14.132812-.015625-25.582031-11.46875-25.597656-25.597656v-8.535156c0-4.710938 3.820313-8.53125 8.53125-8.53125 4.714844 0 8.535156 3.820312 8.535156 8.53125v8.535156c.003907 4.707031 3.820313 8.527344 8.53125 8.53125 4.714844 0 8.535157 3.820313 8.535157 8.535156 0 4.710938-3.820313 8.53125-8.535157 8.53125zm0 0"/><path d="m204.824219 452.308594c-4.714844 0-8.535157-3.820313-8.535157-8.53125v-17.066406c0-4.714844 3.820313-8.535157 8.535157-8.535157 4.710937 0 8.53125 3.820313 8.53125 8.535157v17.066406c0 4.710937-3.820313 8.53125-8.53125 8.53125zm0 0"/><path d="m136.226562 48.9375c-2.457031 0-4.796874-1.058594-6.417968-2.90625-1.625-1.847656-2.371094-4.304688-2.050782-6.742188 1.253907-11.101562 6.257813-21.441406 14.1875-29.308593 11.265626-9.777344 26.972657-12.621094 40.945313-7.40625 13.699219 4.769531 24.640625 15.265625 29.972656 28.753906 1.472657 4.414063-.859375 9.195313-5.242187 10.75-4.386719 1.554687-9.207032-.691406-10.84375-5.046875-3.582032-8.625-10.6875-15.300781-19.515625-18.347656-7.980469-3.074219-16.992188-1.644532-23.632813 3.742187-5.03125 5.191407-8.183594 11.914063-8.960937 19.097657-.558594 4.238281-4.167969 7.40625-8.441407 7.414062zm0 0"/><path d="m94.570312 93.910156h-.207031c-8.933593-.136718-17.429687-3.894531-23.539062-10.417968-7.5-8.183594-11.46875-18.996094-11.050781-30.085938.054687-13.109375 5.316406-25.664062 14.628906-34.890625 11.242187-9.78125 26.933594-12.621094 40.890625-7.40625 13.699219 4.765625 24.640625 15.257813 29.980469 28.742187 1.019531 2.871094.429687 6.074219-1.546876 8.394532-1.976562 2.320312-5.042968 3.410156-8.039062 2.859375-3-.554688-5.476562-2.664063-6.5-5.535157-3.578125-8.625-10.679688-15.300781-19.507812-18.34375-7.964844-3.085937-16.976563-1.660156-23.601563 3.738282-5.941406 6.125-9.261719 14.328125-9.246094 22.863281-.277343 6.558594 2 12.96875 6.347657 17.886719 2.992187 3.230468 7.179687 5.089844 11.585937 5.132812 4.644531.140625 8.324219 3.976563 8.269531 8.625-.050781 4.648438-3.816406 8.398438-8.464844 8.4375zm0 0"/><path d="m42.09375 137.515625c-2.15625.003906-4.230469-.8125-5.804688-2.28125-8.9375-8.019531-14.582031-19.070313-15.84375-31.011719-.660156-14.84375 6.839844-28.863281 19.558594-36.550781 9.507813-6.042969 20.757813-8.742187 31.972656-7.679687 3.078126.257812 5.773438 2.15625 7.054688 4.964843 1.28125 2.808594.941406 6.089844-.882812 8.582031-1.820313 2.492188-4.847657 3.800782-7.914063 3.429688-7.386719-.636719-14.78125 1.15625-21.0625 5.097656-7.355469 4.324219-11.828125 12.261719-11.714844 20.792969.910157 7.683594 4.628907 14.757813 10.4375 19.867187 2.570313 2.386719 3.417969 6.105469 2.136719 9.371094s-4.429688 5.414063-7.9375 5.417969zm0 0"/><path d="m57.242188 204.847656c-9.933594-.144531-19.511719-3.742187-27.085938-10.175781-10.242188-8.1875-16.8125-20.113281-18.261719-33.144531-.679687-14.886719 6.84375-28.945313 19.601563-36.640625 12.242187-7.78125 27.265625-9.839844 41.148437-5.640625 4.375 1.582031 6.679688 6.378906 5.175781 10.78125-1.5 4.40625-6.253906 6.792968-10.6875 5.371094-8.980468-2.546876-18.625-1.128907-26.492187 3.894531-7.367187 4.328125-11.847656 12.273437-11.734375 20.816406 1.109375 8.464844 5.476562 16.160156 12.175781 21.457031 4.964844 4.292969 11.40625 6.492188 17.964844 6.132813 4.390625-.335938 8.445313-2.464844 11.214844-5.890625 1.933593-2.382813 5.003906-3.542969 8.03125-3.035156 3.03125.507812 5.554687 2.605468 6.605469 5.492187 1.054687 2.882813.476562 6.113281-1.515626 8.453125-5.652343 6.917969-13.875 11.242188-22.78125 11.980469-1.113281.097656-2.234374.148437-3.359374.148437zm0 0"/><path d="m273.417969 48.9375c-4.277344-.003906-7.886719-3.175781-8.449219-7.414062-.78125-7.214844-3.953125-13.957032-9.015625-19.160157-6.632813-5.351562-15.617187-6.753906-23.566406-3.683593-8.832031 3.046874-15.9375 9.722656-19.523438 18.347656-1.632812 4.355468-6.453125 6.601562-10.839843 5.046875-4.386719-1.554688-6.71875-6.335938-5.242188-10.746094 5.332031-13.488281 16.273438-23.988281 29.972656-28.753906 13.945313-5.207031 29.621094-2.390625 40.882813 7.347656 7.960937 7.878906 12.988281 18.238281 14.25 29.367187.320312 2.4375-.429688 4.894532-2.050781 6.742188-1.621094 1.847656-3.960938 2.90625-6.417969 2.90625zm0 0"/><path d="m315.074219 93.910156c-4.648438-.035156-8.414063-3.785156-8.46875-8.433594-.050781-4.652343 3.625-8.488281 8.273437-8.628906 4.402344-.042968 8.589844-1.902344 11.582032-5.132812 4.347656-4.917969 6.625-11.328125 6.347656-17.882813.015625-8.539062-3.300782-16.742187-9.242188-22.871093-6.625-5.390626-15.632812-6.820313-23.601562-3.738282-8.828125 3.042969-15.929688 9.722656-19.507813 18.347656-1.578125 4.441407-6.460937 6.761719-10.902343 5.179688-4.441407-1.578125-6.761719-6.457031-5.183594-10.898438 5.339844-13.484374 16.285156-23.980468 29.984375-28.742187 13.957031-5.210937 29.644531-2.367187 40.886719 7.40625 9.316406 9.230469 14.578124 21.78125 14.628906 34.894531.417968 11.089844-3.554688 21.894532-11.046875 30.078125-6.113281 6.523438-14.609375 10.285157-23.542969 10.421875zm0 0"/><path d="m367.554688 137.515625c-3.511719 0-6.660157-2.148437-7.941407-5.417969-1.28125-3.265625-.433593-6.984375 2.136719-9.371094 5.808594-5.101562 9.523438-12.167968 10.4375-19.84375.125-8.523437-4.332031-16.460937-11.675781-20.792968-6.289063-3.957032-13.695313-5.753906-21.097657-5.121094-3.066406.375-6.09375-.9375-7.914062-3.429688-1.824219-2.488281-2.164062-5.769531-.882812-8.578124 1.28125-2.808594 3.976562-4.707032 7.054687-4.964844 11.230469-1.058594 22.492187 1.652344 32.011719 7.699218 12.703125 7.695313 20.1875 21.714844 19.515625 36.550782-1.265625 11.933594-6.910157 22.972656-15.84375 30.988281-1.574219 1.46875-3.648438 2.28125-5.800781 2.28125zm0 0"/><path d="m352.402344 204.847656c-1.125 0-2.246094-.050781-3.359375-.15625-8.90625-.734375-17.128907-5.058594-22.785157-11.976562-3.011718-3.625-2.515624-9.003906 1.109376-12.019532 3.625-3.011718 9.003906-2.515624 12.015624 1.109376 2.769532 3.421874 6.824219 5.550781 11.214844 5.886718 6.558594.371094 13.003906-1.828125 17.964844-6.132812 6.699219-5.292969 11.066406-12.992188 12.175781-21.453125.113281-8.542969-4.367187-16.488281-11.734375-20.816407-7.867187-5.023437-17.511718-6.441406-26.492187-3.898437-2.902344 1.046875-6.144531.449219-8.476563-1.566406-2.335937-2.019531-3.398437-5.136719-2.785156-8.160157.617188-3.023437 2.8125-5.480468 5.75-6.421874 13.882812-4.199219 28.90625-2.140626 41.148438 5.636718 12.757812 7.695313 20.277343 21.757813 19.597656 36.640625-1.449219 13.035157-8.019532 24.957031-18.261719 33.148438-7.570313 6.433593-17.148437 10.03125-27.082031 10.179687zm0 0"/><path d="m179.214844 128.042969c-16.894532 1.101562-32.996094-7.296875-41.757813-21.78125-2.136719-4.203125-.460937-9.339844 3.742188-11.472657 4.203125-2.136718 9.339843-.460937 11.472656 3.742188 5.949219 8.640625 16.09375 13.398438 26.542969 12.445312h.007812c16.871094-.003906 17.066406-8.449218 17.066406-8.535156 0-4.710937 3.820313-8.53125 8.535157-8.53125 4.710937 0 8.53125 3.820313 8.53125 8.53125 0 8.855469-7.132813 25.597656-34.132813 25.601563zm0 0"/><path d="m230.429688 128.042969h-.007813c-27-.003907-34.132813-16.746094-34.132813-25.601563 0-4.710937 3.820313-8.53125 8.535157-8.53125 4.710937 0 8.53125 3.820313 8.53125 8.53125.089843 1.222656 1.367187 8.53125 17.066406 8.535156h.007813c10.457031.96875 20.613281-3.800781 26.550781-12.457031 2.210937-4.121093 7.3125-5.714843 11.476562-3.585937 4.140625 2.113281 5.804688 7.167968 3.730469 11.332031-8.761719 14.480469-24.863281 22.878906-41.757812 21.777344zm0 0"/></svg>