<?xml version="1.0" encoding="UTF-8"?>
<svg xmlns="http://www.w3.org/2000/svg" xmlns:xlink="http://www.w3.org/1999/xlink" width="545.88pt" height="1131.62pt" viewBox="0 0 545.88 1131.62" version="1.1">
<defs>
<clipPath id="clip1">
  <path d="M 0 0 L 545.878906 0 L 545.878906 1131.621094 L 0 1131.621094 Z M 0 0 "/>
</clipPath>
</defs>
<g id="surface1">
<g clip-path="url(#clip1)" clip-rule="nonzero">
<path style=" stroke:none;fill-rule:nonzero;fill:rgb(23.143005%,6.665039%,7.054138%);fill-opacity:1;" d="M 430.828125 1054.925781 C 425.492188 1060.667969 420.089844 1066.355469 415.042969 1072.34375 C 411.546875 1076.113281 418.472656 1081.269531 421.34375 1077.121094 C 426.621094 1071.539063 431.859375 1065.878906 436.855469 1060.042969 C 440 1056.707031 433.507813 1051.484375 430.828125 1054.925781 M 118.144531 1054.328125 C 115.925781 1055.019531 114.144531 1058.164063 116.132813 1060.054688 C 121.289063 1065.839844 126.335938 1071.773438 131.820313 1077.269531 C 133.78125 1080.003906 138.625 1078.316406 138.761719 1075.160156 C 139.140625 1073.050781 137.34375 1071.621094 136.203125 1070.195313 C 131.574219 1065.171875 127.058594 1060.070313 122.363281 1055.128906 C 121.34375 1053.78125 119.558594 1053.320313 118.144531 1054.328125 M 417.449219 1045.6875 C 412.117188 1051.347656 406.769531 1057.023438 401.773438 1062.996094 C 398.65625 1066.058594 403.910156 1071.417969 407.121094 1068.464844 C 412.277344 1064.042969 416.292969 1058.449219 421.085938 1053.632813 C 422.660156 1051.714844 425.535156 1049.523438 423.832031 1046.773438 C 422.445313 1044.910156 419.125 1043.15625 417.449219 1045.6875 M 130.09375 1045.78125 C 128.445313 1046.640625 128.351563 1049.414063 129.492188 1050.761719 C 134.105469 1056.21875 138.992188 1061.445313 143.878906 1066.65625 C 145.441406 1068.195313 147.605469 1070.410156 149.90625 1068.695313 C 152.53125 1067.730469 152.980469 1064.097656 150.816406 1062.4375 C 145.851563 1056.898438 140.964844 1051.265625 135.792969 1045.929688 C 134.40625 1043.671875 131.808594 1044.296875 130.09375 1045.78125 M 404.046875 1036.527344 C 398.808594 1042.269531 393.472656 1047.945313 388.4375 1053.863281 C 385.378906 1057.441406 391.90625 1062.234375 394.65625 1058.625 C 400.085938 1053.074219 405.300781 1047.292969 410.402344 1041.441406 C 413.53125 1037.683594 406.796875 1032.488281 404.046875 1036.527344 M 160.996094 1039.496094 C 164.902344 1044.871094 171.976563 1048.910156 172.019531 1056.273438 C 171.882813 1062.941406 165.363281 1067.746094 158.941406 1066.722656 C 157.851563 1072.875 152.015625 1077.066406 145.851563 1076.03125 C 144.460938 1083.394531 135.644531 1088.265625 129.070313 1083.910156 C 124.050781 1079.816406 120.105469 1074.5625 115.777344 1069.785156 C 105 1075.867188 94.042969 1081.828125 84.21875 1089.394531 C 82.628906 1091.597656 81.15625 1093.886719 79.730469 1096.226563 C 100.238281 1106.214844 123.613281 1107.464844 146.039063 1108.117188 C 164.617188 1106.976563 183.257813 1107.535156 201.875 1107.398438 C 218.203125 1107.535156 234.710938 1107.410156 250.765625 1103.980469 C 253.789063 1103.234375 257.039063 1102.59375 259.585938 1100.660156 C 263.328125 1093.519531 264.375 1085.285156 264.335938 1077.3125 C 263.519531 1065.105469 259.121094 1053.320313 252.507813 1043.101563 C 250.792969 1042.324219 250.714844 1044.910156 249.949219 1045.863281 C 247.664063 1051.332031 245.242188 1057.238281 239.921875 1060.464844 C 230.96875 1066.207031 219.59375 1064.300781 210.039063 1061.199219 C 197.628906 1056.695313 185.816406 1050.148438 176.058594 1041.207031 C 173.230469 1038.597656 170.128906 1036.253906 166.699219 1034.5 C 164.820313 1036.171875 162.914063 1037.847656 160.996094 1039.496094 M 142.378906 1036.488281 C 141.660156 1039.289063 142.378906 1042.148438 144.722656 1043.972656 C 150.3125 1049.277344 154.464844 1056.097656 160.941406 1060.4375 C 164.058594 1059.59375 166.464844 1056.125 164.125 1053.238281 C 158.941406 1047.429688 153.714844 1041.617188 148.339844 1035.996094 C 146.707031 1033.886719 144.246094 1036.023438 142.378906 1036.488281 M 377.101563 1041.058594 C 367.632813 1049.808594 356.175781 1056.21875 344.144531 1060.777344 C 334.320313 1064.191406 322.550781 1066.355469 313.171875 1060.558594 C 306.4375 1056.613281 304.710938 1048.558594 301.117188 1042.242188 C 295.414063 1050.855469 291.019531 1060.558594 289.441406 1070.820313 C 287.535156 1080.101563 288.910156 1089.871094 292.394531 1098.621094 C 293.332031 1101.847656 297.019531 1102.527344 299.824219 1103.398438 C 324.316406 1109.167969 349.65625 1106.949219 374.570313 1107.398438 C 389.582031 1106.976563 404.550781 1108.648438 419.53125 1107.589844 C 437.726563 1107.015625 456.070313 1103.929688 472.890625 1096.785156 C 471.976563 1093.953125 470.398438 1091.4375 468.601563 1089.109375 L 468.25 1089.203125 C 458.832031 1081.433594 447.753906 1076.042969 437.359375 1069.71875 C 432.800781 1074.332031 429.070313 1079.828125 423.996094 1083.910156 C 417.464844 1088.226563 408.359375 1083.558594 407.300781 1076.019531 C 401.011719 1077.121094 395.132813 1072.886719 393.921875 1066.722656 C 387.011719 1067.90625 380.285156 1061.933594 380.914063 1054.941406 C 382.082031 1048.351563 388.164063 1044.460938 392.179688 1039.644531 C 389.976563 1038.121094 388.207031 1035.304688 385.539063 1034.867188 C 382.367188 1036.378906 379.757813 1038.800781 377.101563 1041.058594 M 304.042969 1013.273438 C 304.789063 1016.699219 305.132813 1020.292969 306.449219 1023.601563 C 310.21875 1027.207031 314.097656 1030.71875 317.324219 1034.855469 C 319.433594 1039.480469 320.277344 1047.5625 326.957031 1047.085938 C 341.097656 1045.277344 354.199219 1038.023438 364.925781 1028.851563 C 364.910156 1023.695313 364.925781 1018.539063 364.964844 1013.394531 C 347.628906 1013.355469 330.292969 1013.394531 312.96875 1013.382813 C 309.988281 1013.339844 307.007813 1013.285156 304.042969 1013.273438 M 188.621094 1013.328125 C 188.648438 1018.539063 188.253906 1023.765625 188.6875 1028.976563 C 190.878906 1031.957031 194.292969 1033.726563 197.234375 1035.902344 C 206.199219 1041.128906 215.78125 1046.242188 226.300781 1047.140625 C 231.472656 1047.6875 232.585938 1042.027344 234.410156 1038.488281 C 237.011719 1032.417969 241.554688 1027.410156 247.023438 1023.789063 C 247.527344 1020.496094 249.527344 1016.730469 248.332031 1013.640625 C 248.507813 1013.585938 248.890625 1013.476563 249.066406 1013.421875 C 228.941406 1013.175781 208.761719 1013.394531 188.621094 1013.328125 M 298.871094 990.289063 C 299.335938 992.234375 299.824219 994.207031 300.328125 996.195313 C 303.226563 996.167969 306.136719 996.167969 309.0625 996.179688 C 327.652344 996.207031 346.238281 996.113281 364.828125 996.25 C 364.828125 994.246094 364.84375 992.261719 364.867188 990.289063 C 345.832031 990.328125 326.796875 990.328125 307.742188 990.300781 C 304.777344 990.289063 301.8125 990.273438 298.871094 990.289063 M 188.6875 996.125 C 210.105469 996.207031 231.539063 996.25 252.972656 996.179688 C 253.433594 994.207031 253.910156 992.234375 254.371094 990.273438 C 232.476563 990.34375 210.582031 990.289063 188.6875 990.328125 C 188.6875 992.246094 188.675781 994.179688 188.6875 996.125 M 272.59375 987.785156 C 270.132813 999.773438 267.394531 1011.707031 264.8125 1023.667969 C 264.578125 1025.710938 263.164063 1028.144531 264.703125 1030.023438 C 269.410156 1037.003906 273.5625 1044.394531 276.527344 1052.300781 C 279.671875 1043.628906 284.339844 1035.628906 289.605469 1028.089844 C 286.460938 1014.699219 283.617188 1001.230469 280.757813 987.769531 C 278.023438 987.769531 275.300781 987.769531 272.59375 987.785156 M 406.769531 898.558594 C 406.617188 901.648438 408.359375 904.613281 407.953125 907.703125 C 406.796875 909.839844 405.367188 911.8125 403.992188 913.8125 C 400.605469 919.023438 397.390625 924.371094 395.078125 930.167969 C 398.371094 933.164063 402.820313 931.421875 406.632813 930.714844 C 410.511719 930.019531 414.359375 929.148438 418.292969 928.699219 C 419.558594 940.101563 420.8125 951.519531 421.96875 962.9375 C 422.269531 964.679688 422.226563 966.625 423.234375 968.1875 C 425.683594 971.699219 432.296875 970.855469 433.101563 966.367188 C 435.234375 957.328125 436.949219 948.199219 438.992188 939.136719 C 439.6875 935.121094 441.289063 931.027344 440.3125 926.945313 C 435.765625 920.097656 430.050781 914.125 424.960938 907.703125 C 429.113281 900.394531 433.371094 893.128906 436.40625 885.289063 C 441.183594 873.003906 445.183594 859.324219 441.863281 846.164063 C 435.371094 846.25 428.882813 846.207031 422.390625 846.207031 C 416.675781 846.140625 410.972656 846.164063 405.269531 846.125 C 401.707031 863.355469 402.238281 881.574219 406.769531 898.558594 M 112.183594 846.097656 C 111.734375 847.621094 111.285156 849.148438 110.835938 850.699219 C 110.878906 851.570313 110.972656 853.285156 111.015625 854.15625 C 110.945313 855.175781 110.835938 857.242188 110.78125 858.265625 C 111.246094 861.285156 110.511719 864.933594 112.226563 867.570313 C 112.988281 873.476563 114.863281 879.179688 117.246094 884.621094 L 117.109375 884.894531 C 118.226563 887.753906 119.4375 890.597656 120.621094 893.453125 L 120.824219 893.371094 C 121.777344 895.046875 122.800781 896.746094 123.832031 898.421875 C 124.011719 902.570313 127.042969 905.390625 128.949219 908.816406 L 127.832031 908.996094 C 127.03125 909.933594 126.28125 910.914063 125.5625 911.921875 C 122.226563 915.402344 119.289063 919.242188 116.210938 922.96875 C 114.414063 925.269531 112.128906 927.894531 113.152344 931.066406 C 115.246094 941.992188 117.832031 952.824219 119.980469 963.738281 C 120.347656 966.105469 121.246094 968.542969 123.371094 969.890625 C 126.308594 971.113281 130.433594 970.054688 131.277344 966.664063 C 132.9375 953.980469 133.941406 941.230469 135.605469 928.5625 C 141.414063 929.542969 147.199219 930.796875 153.023438 931.761719 C 155.308594 932.632813 157.0625 930.972656 158.804688 929.773438 C 154.980469 921.828125 150.285156 914.355469 145.457031 906.996094 C 145.984375 904.84375 146.515625 902.707031 147.035156 900.570313 C 147.59375 898.804688 147.808594 896.980469 147.675781 895.089844 C 151.730469 879.261719 151.496094 862.429688 148.75 846.371094 C 146.953125 846.261719 145.171875 846.179688 143.386719 846.140625 C 142.433594 846.386719 140.503906 846.875 139.535156 847.121094 C 139.277344 846.914063 138.746094 846.492188 138.488281 846.289063 C 137.863281 846.097656 136.625 845.71875 136.011719 845.539063 L 135.820313 846.195313 C 132.867188 846.140625 129.914063 846.179688 126.988281 846.519531 C 126.433594 846.386719 125.300781 846.113281 124.742188 845.976563 C 120.554688 846.289063 116.363281 846.207031 112.183594 846.097656 M 265.464844 744.855469 C 267.710938 747.210938 269.953125 749.550781 272.160156 751.945313 L 272.988281 751.890625 C 274.105469 753.347656 275.234375 754.804688 276.40625 756.246094 C 277.859375 754.75 279.304688 753.253906 280.773438 751.769531 C 283.34375 749.277344 285.820313 746.691406 288.3125 744.105469 C 280.730469 745.128906 273.085938 744.964844 265.464844 744.855469 M 360.515625 715.054688 C 348.296875 723.507813 335.464844 731.195313 321.554688 736.527344 C 314.984375 740.773438 309.976563 747.140625 304.519531 752.679688 C 294.992188 761.769531 285.820313 771.226563 276.527344 780.550781 C 267.136719 771.226563 257.898438 761.757813 248.453125 752.519531 L 248.441406 751.851563 L 247.339844 751.742188 C 244.046875 747.984375 240.832031 744.027344 236.722656 741.15625 C 232.980469 739.496094 228.914063 738.761719 225.089844 737.34375 C 213.414063 733.355469 202.800781 726.976563 192.539063 720.238281 C 188.335938 718.035156 184.714844 714.144531 180.375 712.660156 C 169.554688 719.285156 158.953125 726.351563 148.421875 733.464844 C 122.117188 752.980469 109.964844 786.089844 107.246094 817.738281 C 106.960938 821.386719 106.851563 825.046875 106.769531 828.707031 C 124.078125 828.597656 141.402344 828.941406 158.710938 828.84375 C 159.035156 819.386719 158.546875 809.929688 158.914063 800.484375 C 159.144531 796.089844 163.378906 792.390625 167.773438 792.824219 C 171.734375 792.660156 174.5625 795.941406 176.140625 799.21875 C 175.867188 805.058594 175.71875 810.921875 175.773438 816.789063 C 175.882813 855.3125 175.570313 893.835938 175.949219 932.359375 C 175.746094 945.082031 175.488281 957.835938 176.085938 970.558594 C 181.613281 970.773438 187.164063 970.734375 192.714844 970.664063 C 211.304688 970.882813 229.90625 970.378906 248.496094 970.789063 C 266.960938 969.878906 285.46875 970.488281 303.960938 970.449219 C 303.960938 932.820313 303.878906 895.195313 303.972656 857.570313 L 305.144531 857.449219 C 305.15625 895.167969 305.144531 932.890625 305.132813 970.609375 C 323.570313 970.800781 342.007813 970.460938 360.445313 970.71875 C 365.875 970.296875 371.332031 970.503906 376.789063 970.433594 C 376.695313 914.246094 376.804688 858.046875 376.722656 801.847656 C 376.257813 797.027344 380.695313 792.390625 385.566406 792.8125 C 390.246094 792.6875 394.125 797.136719 393.976563 801.722656 C 394.125 810.730469 393.910156 819.742188 394.019531 828.761719 C 411.464844 828.992188 428.90625 828.722656 446.355469 828.886719 C 445.375 807.875 441.429688 786.671875 432.078125 767.691406 C 425.085938 753.292969 414.714844 740.367188 401.367188 731.398438 C 390.289063 724.144531 379.226563 716.917969 368.082031 709.789063 C 365.671875 711.707031 363.15625 713.488281 360.515625 715.054688 M 424.933594 548.738281 C 412.578125 563.53125 399.066406 578.226563 381.539063 586.921875 C 381.945313 592.054688 382.476563 597.183594 382.667969 602.328125 C 379.894531 602.585938 377.128906 602.84375 374.394531 603.128906 C 372.4375 587.480469 372.695313 571.289063 366.980469 556.371094 C 364.269531 549.011719 360.160156 541.484375 353.070313 537.582031 C 346.132813 533.867188 338.457031 531.867188 330.902344 529.90625 C 317.117188 526.597656 303.089844 524.273438 288.976563 523.007813 C 265.394531 520.40625 241.675781 524.136719 218.625 528.941406 C 209.902344 531.023438 201.097656 533.253906 193.054688 537.28125 C 186.402344 540.507813 182.496094 547.230469 179.640625 553.746094 C 172.847656 569.3125 173.078125 586.597656 170.710938 603.144531 C 167.921875 602.84375 165.144531 602.570313 162.382813 602.300781 C 162.710938 597.238281 163.296875 592.203125 163.554688 587.152344 C 140.09375 575.695313 123.953125 554.289063 108.089844 534.328125 C 103.734375 527.46875 98.957031 520.746094 94.097656 514.214844 C 96.074219 531.675781 100.128906 548.890625 104.523438 565.914063 C 108.988281 581.777344 113.914063 598.027344 123.996094 611.363281 C 138.910156 631.9375 152.679688 653.34375 168.195313 673.46875 C 175.339844 682.125 181.515625 691.933594 190.90625 698.386719 C 203.738281 707.285156 216.597656 716.660156 231.578125 721.640625 C 270.320313 734.5 315.582031 728.050781 347.765625 702.425781 C 354.296875 699.664063 359.644531 694.683594 364.40625 689.539063 C 381.769531 669.332031 396.414063 647.027344 411.707031 625.269531 C 419.152344 614.410156 427.832031 604.179688 432.542969 591.699219 C 442.828125 565.761719 448.054688 538.140625 452.613281 510.71875 C 443.578125 523.523438 434.992188 536.683594 424.933594 548.738281 M 518.136719 370.285156 C 509.835938 388.234375 497.613281 404.238281 483.027344 417.53125 C 481.964844 418.648438 480.523438 419.722656 480.441406 421.382813 C 478.820313 443.957031 476.277344 466.464844 473.230469 488.878906 C 476.480469 494.976563 480.578125 504.242188 489.042969 502.675781 C 499.164063 499.507813 507.738281 491.449219 511.710938 481.613281 C 519.578125 464.4375 527.117188 446.542969 528.832031 427.5625 C 529.878906 419.734375 524.679688 413.300781 522.777344 406.089844 C 519.375 394.480469 518.378906 382.328125 518.136719 370.285156 M 27.394531 368.882813 C 27.882813 382.640625 26.5625 396.628906 22.003906 409.695313 C 19.71875 415.382813 16.4375 421.042969 17.257813 427.425781 C 18.941406 446.953125 26.726563 465.308594 34.835938 482.945313 C 37.75 489.953125 43.75 495.054688 49.847656 499.289063 C 54.039063 501.953125 59.984375 504.828125 64.433594 501.070313 C 68.925781 497.015625 73.441406 491.054688 72.066406 484.660156 C 69.035156 463.132813 67.292969 441.425781 65.25 419.789063 C 49.261719 405.679688 36.714844 388.003906 27.394531 368.882813 M 28.019531 343.75 C 34.496094 367.195313 47.003906 389.0625 64.175781 406.304688 C 63.550781 386.464844 56.800781 365.78125 41.96875 351.996094 C 37.859375 348.554688 33.667969 344.132813 28.019531 343.75 M 502.160156 353.820313 C 488.320313 367.78125 482.6875 387.703125 481.515625 406.863281 C 499.191406 388.902344 512.855469 366.558594 519.03125 342.023438 C 512.761719 344.90625 506.964844 348.851563 502.160156 353.820313 M 55.738281 213.113281 C 55.359375 215.671875 54.308594 218.039063 53.015625 220.273438 C 47.558594 229.960938 45.667969 241.175781 44.796875 252.128906 C 43.289063 278.976563 48.347656 305.742188 55.207031 331.613281 C 56.921875 337 57.507813 343.027344 61.195313 347.574219 C 61.425781 335.175781 61.480469 322.699219 63.578125 310.449219 C 64.433594 306.765625 64.800781 302.652344 67.195313 299.59375 C 72.777344 294.351563 79.363281 290.121094 84.464844 284.390625 C 85.511719 279.113281 84.871094 273.628906 85.539063 268.28125 C 88.21875 238.535156 94.25 207.996094 110.796875 182.59375 C 91.582031 191.082031 73.199219 201.453125 55.738281 213.113281 M 440.109375 190.714844 C 455.335938 219.320313 460.316406 252.265625 461.214844 284.3125 C 466.875 289.957031 473.445313 294.613281 479.3125 300.039063 C 483.542969 308.4375 482.742188 318.097656 483.953125 327.175781 C 485.855469 281.507813 484.089844 235.296875 474.167969 190.523438 C 473.5 184.496094 467.964844 179.027344 461.648438 180.25 C 453.757813 181.898438 446.570313 186.019531 440.109375 190.714844 M 140.53125 177.160156 C 134.105469 180.960938 128.976563 186.675781 124.730469 192.730469 C 115.710938 206.011719 110.835938 221.578125 107.339844 237.089844 C 103.652344 255.242188 101.664063 273.765625 101.71875 292.296875 C 95.105469 298.789063 87.71875 304.421875 80.980469 310.75 C 79.363281 316.289063 79.253906 322.152344 78.789063 327.867188 C 77.988281 348.921875 78.96875 369.972656 80.34375 390.96875 C 82.789063 423.425781 85.402344 455.878906 89.785156 488.144531 C 90.859375 493.449219 94.710938 497.558594 97.285156 502.1875 C 106.605469 516.476563 115.816406 531.023438 127.246094 543.730469 C 137.496094 557.242188 149.851563 569.613281 164.65625 578.117188 C 166.5625 563.382813 170.140625 547.910156 180.089844 536.382813 C 185.21875 530.261719 192.90625 527.359375 200.269531 524.925781 C 218.449219 519.046875 237.445313 516.351563 256.347656 514.054688 C 250.535156 509.589844 245.894531 503.222656 238.710938 500.839844 C 231.8125 498.757813 224.476563 499.015625 217.496094 497.316406 C 212.160156 494.484375 209.589844 488.007813 210.609375 482.183594 C 212.148438 472.222656 218.625 463.988281 224.910156 456.464844 C 227.074219 458.53125 229.253906 460.601563 231.402344 462.695313 C 226.136719 468.699219 221.035156 475.367188 219.25 483.300781 C 218.542969 485.355469 220.121094 487.191406 220.652344 489.121094 C 229.867188 490.632813 239.894531 490.28125 248.019531 495.546875 C 254.589844 499.273438 258.726563 506.417969 265.84375 509.25 C 271.246094 510.28125 277.355469 510.730469 282.445313 508.257813 C 289.101563 503.738281 294.039063 496.851563 301.578125 493.628906 C 308.804688 490.226563 316.996094 490.742188 324.644531 489.070313 C 327.527344 487.355469 326.765625 483.382813 326.074219 480.6875 C 323.785156 473.855469 319.242188 468.058594 314.601563 462.65625 C 316.765625 460.601563 318.957031 458.558594 321.242188 456.628906 C 327.394531 464.015625 333.652344 472.085938 335.328125 481.816406 C 336.457031 487.679688 334.007813 494.335938 328.617188 497.273438 C 319.910156 499.628906 309.988281 498.144531 302.179688 503.371094 C 297.675781 506.597656 293.878906 510.691406 289.507813 514.09375 C 307.660156 516.296875 325.882813 518.925781 343.421875 524.300781 C 351.96875 527.007813 360.992188 530.355469 366.625 537.757813 C 375.484375 549.050781 378.992188 563.53125 380.75 577.519531 C 392.546875 570.921875 402.222656 561.285156 411.203125 551.324219 C 427.5625 532.667969 441.398438 511.972656 454.234375 490.78125 C 455.265625 489.070313 456.097656 487.230469 456.394531 485.257813 C 460.996094 450.789063 463.949219 416.128906 466.304688 381.445313 C 467.105469 359.128906 468.875 336.660156 465.882813 314.4375 C 465.554688 312.382813 465.132813 310.179688 463.253906 308.996094 C 456.765625 303.605469 450.367188 298.082031 444.273438 292.242188 C 444.082031 273.710938 442.460938 255.160156 438.582031 237.023438 C 434.488281 218.855469 428.5 200.324219 416.035156 186.074219 C 412.019531 182.007813 407.816406 177.257813 401.949219 176.113281 C 384.371094 172.113281 366.679688 168.46875 348.800781 166.097656 C 346.402344 165.855469 343.953125 165.335938 341.585938 165.8125 L 342.757813 165.554688 C 336.699219 164.195313 330.480469 163.949219 324.332031 163.269531 C 262.863281 158.367188 200.335938 161.621094 140.53125 177.160156 M 89.050781 155.554688 C 81.703125 160.914063 72.695313 164.464844 67.386719 172.289063 L 66.582031 172.480469 C 59.601563 181.324219 55.085938 192.007813 54.429688 203.316406 C 75.429688 189.628906 97.636719 177.597656 121.136719 168.753906 C 123.710938 167.855469 125.996094 166.328125 127.984375 164.464844 C 137.03125 158.042969 148.613281 158.410156 158.859375 155.089844 C 135.65625 152.613281 112.226563 153.128906 89.050781 155.554688 M 69.753906 108.519531 C 71.183594 113.898438 73.605469 118.921875 75.632813 124.078125 C 78.53125 131.808594 81.6875 139.441406 84.667969 147.128906 C 117.734375 143.523438 151.484375 143.523438 184.226563 149.933594 C 186.484375 150.503906 188.757813 149.851563 191 149.402344 C 209.167969 147.375 227.335938 144.855469 245.652344 144.746094 C 224.804688 135.617188 202.8125 129.289063 180.742188 123.898438 C 144.339844 115.261719 107.09375 110.550781 69.753906 108.519531 M 122.664063 48.960938 C 121.191406 60.601563 120.429688 72.328125 119.34375 84 C 119.207031 85.679688 119.097656 87.351563 118.988281 89.019531 C 109.394531 93.320313 99.40625 96.640625 89.8125 100.921875 C 149.621094 106.289063 209.820313 117.609375 264.523438 143.25 C 268.320313 144.761719 272.566406 143.78125 276.539063 143.851563 C 291.890625 144.203125 307.238281 144.503906 322.535156 145.984375 C 311.648438 123.410156 293.375 105.128906 272.5 91.640625 C 248.140625 75.800781 220.585938 65.539063 192.539063 58.429688 C 170.140625 52.960938 147.277344 49.019531 124.269531 47.589844 C 123.875 47.929688 123.058594 48.621094 122.664063 48.960938 M 302.328125 22.558594 C 305.402344 24.140625 308.246094 26.148438 311.402344 27.621094 C 319.71875 33.480469 328.15625 39.199219 335.707031 46.050781 C 369.128906 75.480469 390.480469 116.308594 402.808594 158.613281 C 409.230469 159.5 415.179688 162.179688 420.1875 166.304688 C 423.902344 169.40625 427.355469 172.808594 430.472656 176.535156 C 432.921875 174.234375 437.398438 173.011719 437.425781 169.066406 C 438.707031 157.226563 441.820313 145.550781 441.808594 133.601563 C 441.453125 118.101563 431.34375 105.570313 422.742188 93.570313 C 410.238281 75.820313 393.269531 61.628906 374.859375 50.320313 C 352.636719 36.699219 327.734375 28.019531 302.328125 22.558594 M 152.136719 33.648438 C 147.605469 35.601563 142.855469 37.191406 138.773438 40.03125 C 171.460938 43.5 203.902344 50.640625 234.601563 62.5 C 256.984375 71.261719 278.527344 82.820313 296.746094 98.640625 C 312.140625 111.761719 324.507813 128.339844 332.742188 146.816406 C 345.898438 148.3125 359.058594 149.945313 372.082031 152.355469 C 379.074219 153.6875 386.085938 154.925781 393.039063 156.503906 C 387.132813 138.339844 380.015625 120.511719 370.53125 103.898438 C 349.21875 65.820313 315.28125 33.410156 273.273438 19.769531 C 266.878906 16.769531 259.464844 17.941406 252.617188 17.28125 C 218.558594 16.558594 183.871094 20.660156 152.136719 33.648438 M 199.125 3.210938 C 232.042969 -1.460938 265.628906 -1.019531 298.4375 4.398438 C 328.835938 9.738281 358.597656 19.941406 384.929688 36.199219 C 404.605469 48.421875 422.757813 63.660156 436.203125 82.648438 C 445.644531 95.550781 455.878906 109 458.234375 125.269531 C 460.492188 138.175781 457.527344 151.101563 455.496094 163.8125 C 466.015625 160.820313 478.074219 164.480469 484.851563 173.132813 C 490.117188 179.203125 491.082031 187.449219 492.824219 194.988281 C 498.867188 225.878906 501.328125 257.382813 501.96875 288.800781 C 501.820313 303.292969 502.445313 317.839844 500.949219 332.265625 C 506.1875 329.203125 511.425781 325.503906 517.660156 324.929688 C 524.777344 324.589844 532.082031 328.714844 535.007813 335.328125 C 537.609375 340.757813 536.574219 346.90625 536.328125 352.703125 C 534.925781 371.347656 534.328125 391.117188 542.25 408.511719 C 545.882813 415.640625 546.277344 423.859375 545.621094 431.699219 C 543.582031 452.464844 535.378906 472.003906 526.585938 490.703125 C 521.984375 501.695313 512.609375 509.996094 502.484375 515.835938 C 492.390625 521.714844 478.453125 521.726563 469.597656 513.507813 C 465.117188 540.042969 459.867188 566.621094 450.761719 592 C 446.964844 602.449219 442.230469 612.683594 435.46875 621.570313 C 417.164063 646.796875 400.617188 673.359375 380.382813 697.132813 C 390.792969 703.679688 401.078125 710.457031 411.367188 717.203125 C 431.507813 730.785156 445.890625 751.742188 453.769531 774.535156 C 460.914063 794.566406 463.664063 815.929688 463.824219 837.117188 C 464.140625 840.4375 461.921875 843.023438 459.6875 845.160156 C 462.34375 866.183594 456.136719 887.289063 445.933594 905.523438 C 449.90625 911.0625 455.265625 915.921875 457.15625 922.699219 C 459.023438 928.589844 457.757813 934.824219 456.410156 940.6875 C 454.125 950.554688 452.3125 960.542969 450.015625 970.40625 C 448.230469 978.570313 441.46875 985.199219 433.386719 987.144531 C 421.640625 990.246094 408.0625 982.449219 405.570313 970.40625 C 404.617188 963.441406 403.679688 956.460938 403.433594 949.4375 C 400.332031 949.070313 397.203125 949.003906 394.097656 948.894531 C 393.9375 959.398438 394.261719 969.902344 393.964844 980.410156 C 393.175781 985.851563 387.335938 988.519531 382.316406 987.921875 C 382.328125 997.773438 382.382813 1007.609375 382.289063 1017.464844 C 386.042969 1017.410156 390.125 1016.699219 393.554688 1018.730469 C 399.433594 1021.558594 403.039063 1028.527344 410.074219 1028.894531 C 414.375 1029.5625 416.648438 1033.628906 418.144531 1037.289063 C 420.878906 1037.902344 423.941406 1037.902344 426.296875 1039.628906 C 428.390625 1041.304688 429.710938 1043.710938 431.492188 1045.710938 C 433.179688 1046.980469 435.414063 1047.140625 437.34375 1047.933594 C 440.597656 1048.800781 442.148438 1052.148438 444.871094 1053.890625 C 455.253906 1060.328125 466.195313 1065.90625 476.085938 1073.132813 C 483.300781 1078.425781 489.4375 1086.375 489.816406 1095.625 C 489.992188 1100.035156 489.476563 1104.90625 486.648438 1108.488281 C 483.84375 1110.9375 480.277344 1112.242188 476.984375 1113.863281 C 476.957031 1116.433594 476.945313 1119.003906 476.957031 1121.589844 C 474.101563 1124.871094 469.582031 1124.082031 465.703125 1123.984375 C 462.984375 1124.027344 461.730469 1121.238281 460.738281 1119.183594 C 459.527344 1119.46875 457.078125 1120.011719 455.867188 1120.285156 C 455.210938 1123.019531 455.253906 1126.804688 452.042969 1127.878906 C 447.265625 1128.246094 440.449219 1129.402344 438.84375 1123.347656 C 432.40625 1124.066406 425.996094 1124.898438 419.53125 1125.085938 C 419.683594 1127.578125 418.6875 1129.78125 416.960938 1131.539063 C 413.519531 1131.457031 410.089844 1131.46875 406.660156 1131.621094 C 404.441406 1130.097656 403.460938 1127.726563 403.351563 1125.117188 C 401.285156 1125.085938 399.230469 1125.074219 397.1875 1125.074219 C 396.441406 1127.332031 396.234375 1130.273438 393.691406 1131.347656 C 390.410156 1131.660156 387.105469 1131.632813 383.839844 1131.375 C 380.996094 1130.367188 380.585938 1127.226563 380.546875 1124.652344 C 366.351563 1124.816406 352.160156 1124.734375 337.96875 1124.695313 C 337.75 1129.730469 332.578125 1131.183594 328.371094 1130.4375 C 324.480469 1131.171875 321.339844 1127.863281 321.515625 1124.09375 C 319.582031 1123.917969 317.648438 1123.742188 315.746094 1123.578125 C 315.839844 1126.246094 315.308594 1129.550781 312.179688 1130.203125 C 309.035156 1130.382813 305.6875 1130.871094 302.667969 1129.824219 C 299.414063 1128.136719 299.972656 1124.285156 299.90625 1121.25 C 290.84375 1118.828125 279.398438 1115.875 276.511719 1105.585938 C 273.53125 1115.808594 262.199219 1118.789063 253.148438 1121.277344 C 253.324219 1124.664063 253.121094 1128.460938 249.855469 1130.394531 C 246.589844 1130.203125 243.214844 1130.804688 240.058594 1129.90625 C 237.539063 1128.871094 237.160156 1126 236.792969 1123.671875 C 235.105469 1123.796875 233.445313 1123.917969 231.785156 1124.066406 C 231.308594 1126.585938 230.042969 1128.789063 228.070313 1130.4375 C 224.816406 1130.285156 221.511719 1130.625 218.3125 1130.015625 C 216.351563 1128.789063 215.5625 1126.570313 214.570313 1124.652344 C 200.445313 1124.804688 186.335938 1124.746094 172.210938 1124.695313 C 172.289063 1127.292969 171.472656 1129.671875 169.609375 1131.550781 C 166.140625 1131.441406 162.65625 1131.6875 159.199219 1131.347656 C 156.667969 1130.3125 156.273438 1127.402344 156.003906 1125.0625 C 153.921875 1125.074219 151.851563 1125.101563 149.796875 1125.128906 C 149.238281 1127.523438 148.410156 1129.878906 146.53125 1131.578125 C 143.101563 1131.441406 139.660156 1131.714844 136.257813 1131.332031 C 133.835938 1130.179688 133.359375 1127.386719 133.085938 1125.019531 C 126.675781 1124.925781 120.335938 1123.933594 113.953125 1123.441406 C 112.675781 1129.59375 105.746094 1128.097656 101.203125 1127.890625 C 97.746094 1126.992188 97.460938 1123.101563 97.269531 1120.203125 C 95.460938 1119.902344 93.664063 1119.632813 91.867188 1119.371094 C 90.929688 1125.496094 83.839844 1124.109375 79.417969 1123.902344 C 74.96875 1122.558594 75.730469 1117.316406 75.714844 1113.726563 C 71.539063 1111.519531 65.808594 1110.105469 64.40625 1104.960938 C 60.433594 1093.96875 65.835938 1081.746094 74.679688 1074.847656 C 85.089844 1066.695313 97.011719 1060.789063 108.210938 1053.835938 C 110.320313 1052.339844 111.804688 1050.136719 113.925781 1048.664063 C 116.363281 1047.265625 119.4375 1047.25 121.710938 1045.535156 C 123.777344 1043.128906 125.195313 1039.863281 128.363281 1038.691406 C 130.921875 1037.644531 134.828125 1038.5 135.835938 1035.152344 C 137.605469 1030.675781 142.09375 1028.105469 146.828125 1028.269531 C 151.496094 1025.371094 155.050781 1020.90625 160.015625 1018.46875 C 163.460938 1016.632813 167.460938 1017.4375 171.1875 1017.585938 C 171.105469 1007.679688 171.148438 997.773438 171.160156 987.867188 C 166.042969 988.558594 159.90625 986.492188 158.832031 980.832031 C 158.34375 970.269531 158.777344 959.65625 158.65625 949.085938 C 156.042969 949.070313 153.457031 949.058594 150.871094 949.027344 C 149.714844 955.617188 149.375 962.324219 148.4375 968.964844 C 147.386719 977.402344 140.652344 984.492188 132.570313 986.75 C 122.335938 990.207031 110.210938 984.925781 105.53125 975.265625 C 102.480469 968.203125 101.9375 960.390625 100.058594 953.003906 C 98.507813 943.871094 94.875 934.824219 96.074219 925.445313 C 97.066406 917.554688 102.984375 911.769531 107.789063 905.933594 C 98.398438 887.5625 90.902344 866.769531 94.222656 845.867188 C 91.839844 844.097656 88.820313 842.003906 89.171875 838.613281 C 88.558594 816.367188 91.921875 793.925781 99.460938 772.96875 C 107.394531 751.007813 121.382813 730.894531 140.746094 717.585938 C 149.660156 711.664063 158.667969 705.910156 167.621094 700.074219 C 146.21875 675.539063 129.058594 647.722656 109.953125 621.433594 C 101.910156 610.925781 96.914063 598.515625 92.699219 586.09375 C 85.0625 562.605469 80.109375 538.328125 76.3125 513.957031 C 67.101563 521.863281 53.195313 521.605469 43.136719 515.453125 C 33.148438 509.453125 23.71875 501.273438 19.242188 490.253906 C 11.8125 474.535156 5.253906 458.246094 1.660156 441.183594 C -0.433594 430.160156 -1.429688 417.941406 4.152344 407.734375 C 10.398438 393.539063 10.914063 377.59375 10.382813 362.324219 C 9.960938 353.695313 7.402344 343.980469 12.4375 336.199219 C 17.171875 328.222656 27.679688 324.535156 36.429688 327.515625 C 29.339844 299.347656 25.039063 269.914063 28.769531 240.914063 C 30.058594 230.667969 33.433594 220.871094 37.640625 211.507813 C 35.992188 193.765625 41.679688 175.597656 53.195313 161.988281 C 57.070313 156.980469 62.066406 153.050781 66.71875 148.828125 C 60.160156 132.296875 53.832031 115.648438 46.933594 99.238281 C 65.453125 91.578125 84.234375 84.558594 102.753906 76.941406 C 103.679688 64.148438 105.054688 51.398438 106.171875 38.621094 C 133.929688 19.890625 166.03125 7.988281 199.125 3.210938 "/>
</g>
<path style=" stroke:none;fill-rule:nonzero;fill:rgb(23.143005%,6.665039%,7.054138%);fill-opacity:1;" d="M 119.574219 331.964844 C 127.316406 319.5 140.488281 310.015625 155.484375 309.539063 C 174.875 309.0625 194.390625 312.941406 212.242188 320.492188 C 219.195313 323.582031 226.039063 327.160156 231.851563 332.140625 C 206.597656 341.449219 178.617188 339.75 152.953125 333.039063 C 141.972656 330.210938 130.675781 332.671875 119.574219 331.964844 "/>
<path style=" stroke:none;fill-rule:nonzero;fill:rgb(23.143005%,6.665039%,7.054138%);fill-opacity:1;" d="M 365.113281 310.574219 C 377.808594 308.941406 391.566406 308.152344 403.160156 314.601563 C 410.714844 318.464844 416.402344 325.039063 420.878906 332.101563 C 413.175781 332.535156 405.515625 331.203125 397.828125 331.707031 C 388.003906 332.007813 378.777344 335.773438 369.074219 336.890625 C 349.027344 339.855469 327.976563 339.355469 308.832031 332.144531 C 324.710938 319.230469 345.179688 313.527344 365.113281 310.574219 "/>
<path style=" stroke:none;fill-rule:nonzero;fill:rgb(23.143005%,6.665039%,7.054138%);fill-opacity:1;" d="M 139.195313 366.882813 C 147.007813 353.546875 163.0625 348.757813 177.476563 346.894531 C 185.175781 346.527344 192.972656 344.59375 200.621094 346.496094 C 214 349.003906 223.59375 359.4375 234.710938 366.40625 C 232.179688 370 229.605469 373.59375 226.871094 377.046875 C 219.699219 371.605469 212.269531 366.527344 204.949219 361.316406 C 206.691406 369.007813 204.308594 377.851563 197.558594 382.382813 C 189.695313 388.300781 177.503906 386.425781 171.664063 378.558594 C 167.664063 373.945313 167.433594 367.507813 168.207031 361.765625 C 161.378906 363.929688 154.734375 367.195313 150.339844 373.046875 C 146.679688 370.898438 142.953125 368.855469 139.195313 366.882813 "/>
<path style=" stroke:none;fill-rule:nonzero;fill:rgb(23.143005%,6.665039%,7.054138%);fill-opacity:1;" d="M 311.28125 366.394531 C 322.507813 359.316406 332.277344 348.769531 345.871094 346.390625 C 353.113281 344.660156 360.472656 346.511719 367.765625 346.8125 C 382.492188 348.554688 398.546875 353.410156 406.902344 366.664063 C 403.105469 368.898438 399.242188 371.007813 395.351563 373.046875 C 391.800781 367.523438 385.714844 364.636719 379.796875 362.363281 C 380.449219 368.625 379.796875 375.605469 374.816406 380.054688 C 367.605469 388.191406 353.519531 387.648438 346.8125 379.171875 C 342.074219 374.109375 341.96875 366.789063 343.027344 360.335938 C 334.617188 365.386719 326.945313 371.535156 318.847656 377.0625 C 316.355469 373.484375 313.839844 369.929688 311.28125 366.394531 "/>
<path style=" stroke:none;fill-rule:nonzero;fill:rgb(97.65625%,82.8125%,30.589294%);fill-opacity:1;" d="M 152.136719 33.648438 C 183.871094 20.660156 218.558594 16.558594 252.617188 17.28125 C 259.464844 17.941406 266.878906 16.769531 273.273438 19.769531 C 277.929688 22.96875 282.882813 25.660156 287.753906 28.539063 C 324.765625 52.28125 352.609375 89.390625 366.460938 131.019531 C 368.882813 137.972656 370.9375 145.0625 372.082031 152.355469 C 359.058594 149.945313 345.898438 148.3125 332.742188 146.816406 C 324.507813 128.339844 312.140625 111.761719 296.746094 98.640625 C 278.527344 82.820313 256.984375 71.261719 234.601563 62.5 C 203.902344 50.640625 171.460938 43.5 138.773438 40.03125 C 142.855469 37.191406 147.605469 35.601563 152.136719 33.648438 "/>
<path style=" stroke:none;fill-rule:nonzero;fill:rgb(97.65625%,82.8125%,30.589294%);fill-opacity:1;" d="M 311.402344 27.621094 C 315.035156 27.578125 318.617188 28.328125 321.992188 29.710938 C 342.28125 37.441406 361.605469 47.910156 378.75 61.289063 C 396.019531 74.828125 410.90625 92.328125 418.132813 113.308594 C 424.089844 130.28125 424.28125 148.882813 420.1875 166.300781 C 415.179688 162.179688 409.230469 159.5 402.808594 158.613281 C 390.480469 116.308594 369.128906 75.480469 335.707031 46.050781 C 328.15625 39.199219 319.71875 33.480469 311.402344 27.621094 "/>
<path style=" stroke:none;fill-rule:nonzero;fill:rgb(97.65625%,82.8125%,30.589294%);fill-opacity:1;" d="M 122.660156 48.960938 C 123.058594 48.621094 123.871094 47.929688 124.269531 47.589844 C 147.277344 49.019531 170.140625 52.960938 192.539063 58.429688 C 220.585938 65.539063 248.140625 75.800781 272.5 91.640625 C 293.371094 105.128906 311.648438 123.410156 322.535156 145.984375 C 307.238281 144.503906 291.890625 144.203125 276.539063 143.851563 C 271.449219 137.140625 263.734375 133.386719 256.78125 129 C 233.183594 115.308594 207.386719 105.921875 181.3125 98.210938 C 160.925781 92.429688 140.351563 86.898438 119.34375 84 C 120.429688 72.328125 121.191406 60.601563 122.660156 48.960938 "/>
<path style=" stroke:none;fill-rule:nonzero;fill:rgb(97.65625%,82.8125%,30.589294%);fill-opacity:1;" d="M 69.753906 108.519531 C 107.09375 110.550781 144.339844 115.261719 180.742188 123.898438 C 202.8125 129.289063 224.804688 135.617188 245.652344 144.746094 C 227.335938 144.855469 209.167969 147.375 191 149.402344 C 187.777344 147.117188 184.332031 145.117188 180.5625 143.917969 C 151.375 133.847656 120.769531 128.699219 90.179688 125.128906 C 85.347656 124.539063 80.492188 124.289063 75.632813 124.078125 C 73.605469 118.921875 71.183594 113.898438 69.753906 108.519531 "/>
<path style=" stroke:none;fill-rule:nonzero;fill:rgb(97.65625%,95.3125%,52.929688%);fill-opacity:1;" d="M 273.273438 19.769531 C 315.28125 33.410156 349.21875 65.820313 370.53125 103.898438 C 380.015625 120.511719 387.132813 138.339844 393.039063 156.503906 C 386.085938 154.925781 379.074219 153.6875 372.082031 152.355469 C 370.9375 145.0625 368.882813 137.972656 366.460938 131.019531 C 352.609375 89.390625 324.765625 52.28125 287.753906 28.539063 C 282.882813 25.660156 277.929688 22.96875 273.273438 19.769531 "/>
<path style=" stroke:none;fill-rule:nonzero;fill:rgb(97.65625%,94.921875%,52.929688%);fill-opacity:1;" d="M 302.328125 22.558594 C 327.734375 28.019531 352.636719 36.699219 374.855469 50.320313 C 393.269531 61.628906 410.238281 75.820313 422.742188 93.570313 C 431.34375 105.570313 441.453125 118.101563 441.808594 133.601563 C 441.820313 145.550781 438.703125 157.226563 437.425781 169.066406 C 437.398438 173.011719 432.921875 174.234375 430.472656 176.535156 C 427.355469 172.808594 423.898438 169.40625 420.183594 166.300781 C 424.28125 148.882813 424.089844 130.28125 418.128906 113.308594 C 410.902344 92.328125 396.015625 74.828125 378.75 61.289063 C 361.605469 47.910156 342.28125 37.441406 321.988281 29.710938 C 318.617188 28.328125 315.039063 27.578125 311.402344 27.621094 C 308.246094 26.160156 305.402344 24.140625 302.328125 22.558594 "/>
<path style=" stroke:none;fill-rule:nonzero;fill:rgb(97.65625%,94.921875%,52.929688%);fill-opacity:1;" d="M 440.105469 190.714844 C 446.570313 186.019531 453.757813 181.898438 461.648438 180.25 C 467.964844 179.027344 473.5 184.496094 474.167969 190.523438 C 484.089844 235.292969 485.855469 281.507813 483.953125 327.175781 C 482.742188 318.097656 483.542969 308.4375 479.3125 300.039063 C 473.445313 294.609375 466.875 289.957031 461.214844 284.308594 C 460.316406 252.265625 455.335938 219.320313 440.105469 190.714844 "/>
<path style=" stroke:none;fill-rule:nonzero;fill:rgb(91.796875%,63.084412%,22.75238%);fill-opacity:1;" d="M 119.34375 84 C 140.351563 86.898438 160.929688 92.429688 181.3125 98.210938 C 207.386719 105.921875 233.1875 115.308594 256.78125 129 C 263.734375 133.386719 271.449219 137.140625 276.539063 143.851563 C 272.566406 143.78125 268.320313 144.761719 264.523438 143.25 C 209.820313 117.609375 149.621094 106.289063 89.8125 100.921875 C 99.40625 96.640625 109.394531 93.320313 118.988281 89.019531 C 119.097656 87.351563 119.207031 85.679688 119.34375 84 "/>
<path style=" stroke:none;fill-rule:nonzero;fill:rgb(91.796875%,63.084412%,22.75238%);fill-opacity:1;" d="M 75.632813 124.078125 C 80.492188 124.300781 85.347656 124.539063 90.179688 125.128906 C 120.769531 128.699219 151.375 133.847656 180.5625 143.917969 C 184.332031 145.113281 187.777344 147.113281 191 149.402344 C 188.753906 149.851563 186.484375 150.503906 184.222656 149.933594 C 151.484375 143.523438 117.734375 143.523438 84.667969 147.128906 C 81.691406 139.441406 78.53125 131.804688 75.632813 124.078125 "/>
<path style=" stroke:none;fill-rule:nonzero;fill:rgb(91.796875%,63.084412%,22.75238%);fill-opacity:1;" d="M 88.804688 167.949219 C 101.734375 165.785156 114.8125 163.527344 127.984375 164.464844 C 125.996094 166.328125 123.710938 167.855469 121.136719 168.753906 C 97.636719 177.597656 75.429688 189.625 54.429688 203.316406 C 55.085938 192.007813 59.601563 181.324219 66.582031 172.480469 L 67.386719 172.289063 C 74.667969 171.636719 81.605469 169.117188 88.804688 167.949219 "/>
<path style=" stroke:none;fill-rule:nonzero;fill:rgb(91.796875%,63.084412%,22.75238%);fill-opacity:1;" d="M 55.738281 213.113281 C 73.199219 201.453125 91.582031 191.082031 110.796875 182.589844 C 94.25 207.996094 88.21875 238.535156 85.539063 268.28125 C 84.875 273.628906 85.511719 279.113281 84.464844 284.390625 C 79.359375 290.121094 72.777344 294.351563 67.195313 299.59375 C 64.800781 302.652344 64.433594 306.765625 63.578125 310.449219 C 61.480469 322.699219 61.425781 335.175781 61.195313 347.574219 C 57.507813 343.027344 56.921875 337 55.207031 331.613281 C 48.347656 305.742188 43.289063 278.976563 44.796875 252.128906 C 45.667969 241.171875 47.558594 229.960938 53.015625 220.273438 C 54.308594 218.039063 55.355469 215.671875 55.738281 213.113281 "/>
<path style=" stroke:none;fill-rule:nonzero;fill:rgb(97.65625%,82.8125%,30.979919%);fill-opacity:1;" d="M 89.050781 155.550781 C 112.226563 153.128906 135.65625 152.613281 158.859375 155.089844 C 148.613281 158.410156 137.03125 158.042969 127.984375 164.464844 C 114.8125 163.527344 101.734375 165.785156 88.804688 167.949219 C 81.605469 169.117188 74.667969 171.636719 67.386719 172.289063 C 72.695313 164.464844 81.703125 160.914063 89.050781 155.550781 "/>
<path style=" stroke:none;fill-rule:nonzero;fill:rgb(91.796875%,56.054688%,38.426208%);fill-opacity:1;" d="M 140.527344 177.160156 C 200.335938 161.621094 262.863281 158.371094 324.332031 163.269531 C 330.480469 163.949219 336.699219 164.191406 342.757813 165.554688 L 341.585938 165.8125 C 332.332031 168.097656 322.765625 168.179688 313.347656 169.242188 C 260.851563 174.699219 208.597656 184.675781 158.65625 201.996094 C 151.292969 204.242188 148.464844 212.09375 144.800781 218.066406 C 134.132813 238.914063 125.765625 261.300781 122.769531 284.625 C 121.871094 289.765625 122.796875 295.375 120.664063 300.203125 C 112.59375 309.605469 101.773438 316.070313 92.34375 323.976563 C 92.058594 353.726563 93.269531 383.5 96.332031 413.097656 C 99.976563 447.644531 105.828125 482.171875 116.878906 515.183594 C 119.898438 524.855469 124.582031 533.933594 127.246094 543.730469 C 115.816406 531.023438 106.605469 516.476563 97.28125 502.1875 C 94.710938 497.558594 90.859375 493.449219 89.785156 488.144531 C 85.402344 455.878906 82.792969 423.425781 80.339844 390.96875 C 78.96875 369.972656 77.988281 348.921875 78.789063 327.871094 C 79.253906 322.152344 79.363281 316.289063 80.980469 310.75 C 87.71875 304.421875 95.105469 298.789063 101.71875 292.296875 C 101.664063 273.765625 103.652344 255.242188 107.339844 237.089844 C 110.839844 221.578125 115.707031 206.011719 124.730469 192.730469 C 128.976563 186.675781 134.105469 180.960938 140.527344 177.160156 "/>
<path style=" stroke:none;fill-rule:nonzero;fill:rgb(91.796875%,56.054688%,38.426208%);fill-opacity:1;" d="M 28.019531 343.75 C 33.667969 344.132813 37.859375 348.554688 41.96875 351.996094 C 56.800781 365.78125 63.550781 386.464844 64.175781 406.304688 C 47.003906 389.0625 34.496094 367.195313 28.019531 343.75 "/>
<path style=" stroke:none;fill-rule:nonzero;fill:rgb(91.796875%,56.054688%,38.426208%);fill-opacity:1;" d="M 46.445313 458.96875 C 43.628906 456.355469 41.328125 453.265625 39.367188 449.988281 C 36.796875 451.46875 34.222656 452.980469 31.695313 454.53125 C 34.402344 458.628906 37.191406 462.804688 41.109375 465.855469 C 46.484375 470.222656 53.453125 471.609375 59.945313 473.515625 C 61.261719 471.050781 62.609375 468.601563 63.945313 466.152344 C 59.808594 462.683594 55.277344 458.859375 54.203125 453.265625 C 52.308594 443.820313 57.058594 434.761719 62.53125 427.425781 C 60.324219 425.5625 58.121094 423.695313 55.941406 421.804688 C 47.21875 431.792969 42.578125 445.933594 46.445313 458.96875 M 27.394531 368.882813 C 36.714844 388.003906 49.261719 405.679688 65.25 419.789063 C 67.292969 441.425781 69.03125 463.132813 72.070313 484.660156 C 73.441406 491.054688 68.925781 497.015625 64.433594 501.070313 C 59.984375 504.828125 54.039063 501.953125 49.847656 499.289063 C 43.75 495.054688 37.75 489.953125 34.835938 482.945313 C 26.726563 465.308594 18.941406 446.953125 17.253906 427.425781 C 16.441406 421.042969 19.71875 415.382813 22.003906 409.695313 C 26.5625 396.628906 27.882813 382.640625 27.394531 368.882813 "/>
<path style=" stroke:none;fill-rule:nonzero;fill:rgb(91.796875%,56.054688%,38.426208%);fill-opacity:1;" d="M 207.359375 569.519531 C 211.957031 571.941406 217.113281 573.476563 222.355469 572.457031 C 255.734375 567.925781 289.644531 567.898438 323.023438 572.375 C 328.347656 573.328125 333.816406 572.363281 338.375 569.421875 C 344.457031 581.671875 348.511719 594.898438 350.5 608.4375 C 333.011719 615.90625 318.808594 632.289063 317.609375 651.789063 C 311.445313 652.796875 305.183594 652.785156 298.980469 653.207031 C 298.054688 645.546875 297.835938 637.816406 296.816406 630.183594 C 307.15625 622.847656 308.449219 609.171875 309.457031 597.578125 C 315.132813 595.769531 320.617188 593.316406 325.421875 589.738281 C 323.378906 587.589844 321.339844 585.453125 319.269531 583.328125 C 306.75 591.425781 291.304688 593.058594 276.746094 593.34375 C 259.679688 593.605469 241.5 592.582031 226.585938 583.398438 C 224.640625 585.519531 222.667969 587.617188 220.667969 589.683594 C 225.292969 593.398438 230.804688 595.738281 236.4375 597.507813 C 237.445313 609.023438 238.5625 622.808594 249.023438 629.976563 C 248.34375 637.679688 247.433594 645.367188 247.050781 653.109375 C 240.804688 652.839844 234.519531 652.851563 228.339844 651.738281 C 226.941406 632.359375 212.976563 615.976563 195.519531 608.503906 C 197.015625 594.898438 201.753906 581.914063 207.359375 569.519531 "/>
<path style=" stroke:none;fill-rule:nonzero;fill:rgb(91.796875%,56.054688%,38.426208%);fill-opacity:1;" d="M 406.769531 898.558594 C 402.238281 881.574219 401.707031 863.351563 405.269531 846.125 C 410.972656 846.167969 416.675781 846.140625 422.390625 846.207031 C 418.894531 854.78125 414.660156 863.09375 412.238281 872.0625 C 409.640625 880.730469 409.324219 889.875 406.769531 898.558594 "/>
<path style=" stroke:none;fill-rule:nonzero;fill:rgb(91.796875%,56.054688%,38.426208%);fill-opacity:1;" d="M 120.824219 893.371094 C 121.914063 892.898438 123.015625 892.488281 124.144531 892.136719 C 125.246094 893.371094 126.214844 894.761719 127.222656 896.121094 C 126.378906 896.691406 124.675781 897.851563 123.832031 898.421875 C 122.796875 896.746094 121.777344 895.046875 120.824219 893.371094 "/>
<path style=" stroke:none;fill-rule:nonzero;fill:rgb(98.046875%,67.381287%,49.414063%);fill-opacity:1;" d="M 311.28125 366.394531 C 313.839844 369.929688 316.355469 373.484375 318.847656 377.0625 C 326.945313 371.535156 334.617188 365.386719 343.027344 360.335938 C 341.96875 366.789063 342.074219 374.109375 346.8125 379.171875 C 353.519531 387.648438 367.605469 388.191406 374.816406 380.054688 C 379.796875 375.605469 380.449219 368.625 379.796875 362.363281 C 385.714844 364.636719 391.800781 367.523438 395.351563 373.046875 C 399.242188 371.007813 403.105469 368.898438 406.902344 366.664063 C 398.546875 353.410156 382.492188 348.554688 367.765625 346.8125 C 360.472656 346.511719 353.113281 344.660156 345.871094 346.390625 C 332.277344 348.769531 322.507813 359.316406 311.28125 366.394531 M 139.195313 366.882813 C 142.949219 368.855469 146.679688 370.898438 150.339844 373.046875 C 154.734375 367.195313 161.375 363.929688 168.207031 361.765625 C 167.433594 367.507813 167.664063 373.945313 171.664063 378.558594 C 177.503906 386.425781 189.695313 388.300781 197.558594 382.382813 C 204.308594 377.851563 206.691406 369.007813 204.949219 361.316406 C 212.269531 366.527344 219.699219 371.605469 226.871094 377.046875 C 229.605469 373.59375 232.179688 370 234.710938 366.40625 C 223.59375 359.4375 213.996094 349.003906 200.621094 346.496094 C 192.972656 344.59375 185.175781 346.523438 177.476563 346.894531 C 163.0625 348.757813 147.007813 353.546875 139.195313 366.882813 M 249.746094 348.089844 C 252.65625 351.546875 255.609375 354.976563 258.632813 358.335938 C 253.949219 389.253906 249.132813 420.15625 244.140625 451.035156 C 247.023438 451.496094 249.910156 451.988281 252.808594 452.476563 C 258.058594 420.253906 262.960938 387.976563 268.007813 355.722656 C 264.046875 351.261719 260.195313 346.703125 256.386719 342.128906 C 254.167969 344.117188 251.964844 346.105469 249.746094 348.089844 M 365.113281 310.574219 C 345.179688 313.527344 324.710938 319.226563 308.832031 332.140625 C 327.976563 339.355469 349.027344 339.859375 369.074219 336.890625 C 378.777344 335.773438 388.003906 332.007813 397.828125 331.707031 C 405.515625 331.203125 413.175781 332.535156 420.878906 332.101563 C 416.402344 325.039063 410.714844 318.464844 403.160156 314.601563 C 391.566406 308.152344 377.808594 308.941406 365.113281 310.574219 M 119.574219 331.964844 C 130.675781 332.671875 141.972656 330.210938 152.953125 333.039063 C 178.617188 339.75 206.59375 341.449219 231.851563 332.140625 C 226.039063 327.160156 219.195313 323.582031 212.242188 320.492188 C 194.390625 312.941406 174.875 309.0625 155.484375 309.539063 C 140.488281 310.015625 127.316406 319.5 119.574219 331.964844 M 313.347656 169.242188 C 322.765625 168.179688 332.332031 168.097656 341.585938 165.8125 C 343.953125 165.335938 346.402344 165.851563 348.796875 166.097656 C 366.679688 168.464844 384.367188 172.113281 401.949219 176.113281 C 407.816406 177.257813 412.019531 182.007813 416.035156 186.074219 C 428.5 200.320313 434.488281 218.855469 438.582031 237.023438 C 442.460938 255.160156 444.082031 273.710938 444.269531 292.242188 C 450.367188 298.082031 456.761719 303.605469 463.253906 308.996094 C 465.132813 310.179688 465.554688 312.382813 465.878906 314.4375 C 468.875 336.660156 467.105469 359.125 466.300781 381.441406 C 463.949219 416.128906 460.996094 450.789063 456.394531 485.257813 C 456.097656 487.230469 455.265625 489.066406 454.230469 490.78125 C 441.398438 511.96875 427.5625 532.667969 411.203125 551.324219 C 402.222656 561.285156 392.546875 570.921875 380.75 577.519531 C 378.992188 563.53125 375.484375 549.050781 366.625 537.757813 C 360.992188 530.355469 351.96875 527.007813 343.421875 524.300781 C 325.882813 518.925781 307.660156 516.296875 289.507813 514.09375 C 293.875 510.691406 297.671875 506.59375 302.175781 503.371094 C 309.988281 498.144531 319.90625 499.628906 328.617188 497.273438 C 334.007813 494.335938 336.457031 487.679688 335.324219 481.816406 C 333.652344 472.085938 327.394531 464.015625 321.242188 456.628906 C 318.957031 458.558594 316.765625 460.601563 314.601563 462.65625 C 319.242188 468.058594 323.785156 473.855469 326.074219 480.6875 C 326.765625 483.378906 327.527344 487.355469 324.644531 489.066406 C 316.996094 490.742188 308.804688 490.226563 301.578125 493.628906 C 294.039063 496.851563 289.101563 503.738281 282.445313 508.253906 C 277.355469 510.730469 271.246094 510.28125 265.84375 509.25 C 258.726563 506.417969 254.589844 499.273438 248.019531 495.546875 C 239.894531 490.277344 229.863281 490.632813 220.652344 489.121094 C 220.121094 487.191406 218.542969 485.351563 219.25 483.296875 C 221.03125 475.363281 226.136719 468.695313 231.402344 462.695313 C 229.253906 460.601563 227.074219 458.53125 224.910156 456.464844 C 218.625 463.988281 212.148438 472.222656 210.609375 482.183594 C 209.589844 488.007813 212.160156 494.484375 217.496094 497.316406 C 224.476563 499.015625 231.8125 498.757813 238.710938 500.839844 C 245.894531 503.21875 250.535156 509.589844 256.347656 514.050781 C 237.445313 516.351563 218.449219 519.046875 200.269531 524.925781 C 192.90625 527.359375 185.21875 530.257813 180.089844 536.382813 C 170.140625 547.910156 166.5625 563.382813 164.65625 578.117188 C 149.851563 569.613281 137.496094 557.242188 127.246094 543.730469 C 124.582031 533.933594 119.898438 524.855469 116.878906 515.183594 C 105.828125 482.167969 99.976563 447.644531 96.332031 413.09375 C 93.269531 383.496094 92.058594 353.722656 92.34375 323.976563 C 101.773438 316.070313 112.59375 309.605469 120.660156 300.203125 C 122.796875 295.371094 121.871094 289.765625 122.769531 284.621094 C 125.765625 261.300781 134.132813 238.914063 144.800781 218.066406 C 148.464844 212.09375 151.292969 204.242188 158.65625 201.996094 C 208.597656 184.671875 260.851563 174.699219 313.347656 169.242188 "/>
<path style=" stroke:none;fill-rule:nonzero;fill:rgb(98.046875%,67.381287%,49.414063%);fill-opacity:1;" d="M 502.160156 353.820313 C 506.964844 348.851563 512.761719 344.90625 519.03125 342.019531 C 512.855469 366.554688 499.191406 388.898438 481.515625 406.863281 C 482.6875 387.703125 488.320313 367.78125 502.160156 353.820313 "/>
<path style=" stroke:none;fill-rule:nonzero;fill:rgb(98.046875%,67.381287%,49.414063%);fill-opacity:1;" d="M 483.503906 427.410156 C 488.359375 434.105469 492.785156 441.972656 492.292969 450.515625 C 491.859375 457.101563 487.300781 462.382813 482.089844 465.976563 C 483.351563 468.519531 484.644531 471.066406 485.964844 473.609375 C 492.007813 471.71875 498.5 470.519531 503.738281 466.75 C 508.269531 463.648438 511.304688 458.980469 514.378906 454.546875 C 511.808594 452.992188 509.234375 451.46875 506.664063 449.945313 C 504.609375 453.238281 502.335938 456.421875 499.480469 459.078125 C 503.820313 445.929688 498.402344 432.066406 490.308594 421.628906 C 488.007813 423.53125 485.746094 425.464844 483.503906 427.410156 M 518.136719 370.285156 C 518.378906 382.328125 519.371094 394.480469 522.773438 406.085938 C 524.679688 413.300781 529.878906 419.734375 528.832031 427.5625 C 527.117188 446.542969 519.578125 464.4375 511.710938 481.609375 C 507.738281 491.449219 499.164063 499.507813 489.039063 502.675781 C 480.578125 504.242188 476.480469 494.972656 473.230469 488.878906 C 476.277344 466.464844 478.820313 443.957031 480.441406 421.382813 C 480.523438 419.722656 481.964844 418.648438 483.027344 417.53125 C 497.613281 404.238281 509.835938 388.234375 518.136719 370.285156 "/>
<path style=" stroke:none;fill-rule:nonzero;fill:rgb(98.046875%,67.381287%,49.414063%);fill-opacity:1;" d="M 126.988281 846.519531 C 129.914063 846.179688 132.867188 846.140625 135.820313 846.195313 C 135.605469 846.914063 135.195313 848.355469 134.992188 849.078125 C 132.339844 848.167969 129.683594 847.257813 126.988281 846.519531 "/>
<path style=" stroke:none;fill-rule:nonzero;fill:rgb(98.046875%,67.381287%,49.414063%);fill-opacity:1;" d="M 422.390625 846.207031 C 428.882813 846.207031 435.371094 846.25 441.863281 846.167969 C 445.183594 859.324219 441.183594 873.003906 436.40625 885.289063 C 433.371094 893.128906 429.113281 900.394531 424.960938 907.703125 C 430.050781 914.125 435.765625 920.097656 440.3125 926.945313 C 441.289063 931.027344 439.6875 935.121094 438.992188 939.136719 C 436.949219 948.199219 435.234375 957.328125 433.097656 966.367188 C 432.296875 970.855469 425.683594 971.699219 423.234375 968.1875 C 422.226563 966.625 422.269531 964.679688 421.96875 962.9375 C 420.8125 951.519531 419.558594 940.101563 418.292969 928.699219 C 414.359375 929.148438 410.511719 930.019531 406.632813 930.714844 C 404.074219 925.445313 404.347656 919.488281 403.992188 913.8125 C 405.367188 911.8125 406.796875 909.839844 407.953125 907.703125 C 408.359375 904.613281 406.617188 901.648438 406.769531 898.558594 C 409.324219 889.875 409.640625 880.730469 412.238281 872.0625 C 414.660156 863.09375 418.894531 854.78125 422.390625 846.207031 "/>
<path style=" stroke:none;fill-rule:nonzero;fill:rgb(98.046875%,67.381287%,49.414063%);fill-opacity:1;" d="M 128.949219 908.816406 C 135.671875 908.042969 142.203125 905.390625 147.035156 900.570313 C 146.515625 902.707031 145.984375 904.84375 145.453125 906.996094 C 150.285156 914.355469 154.980469 921.828125 158.804688 929.773438 C 157.0625 930.972656 155.308594 932.632813 153.019531 931.761719 C 147.195313 930.796875 141.414063 929.542969 135.601563 928.5625 C 133.941406 941.230469 132.9375 953.980469 131.277344 966.664063 C 128.351563 957.683594 125.207031 948.675781 124.117188 939.230469 C 122.796875 930.128906 123.953125 920.902344 125.5625 911.921875 C 126.28125 910.914063 127.03125 909.933594 127.832031 908.996094 "/>
<path style=" stroke:none;fill-rule:nonzero;fill:rgb(22.363281%,6.272888%,6.665039%);fill-opacity:1;" d="M 249.746094 348.089844 C 251.964844 346.105469 254.171875 344.117188 256.386719 342.132813 C 260.195313 346.703125 264.046875 351.261719 268.007813 355.726563 C 262.960938 387.976563 258.0625 420.253906 252.808594 452.476563 C 249.910156 451.984375 247.023438 451.496094 244.140625 451.035156 C 249.132813 420.15625 253.953125 389.253906 258.632813 358.339844 C 255.609375 354.976563 252.65625 351.546875 249.746094 348.089844 "/>
<path style=" stroke:none;fill-rule:nonzero;fill:rgb(22.75238%,6.272888%,6.665039%);fill-opacity:1;" d="M 46.445313 458.96875 C 42.578125 445.933594 47.21875 431.792969 55.941406 421.804688 C 58.121094 423.695313 60.324219 425.5625 62.53125 427.425781 C 57.058594 434.761719 52.308594 443.820313 54.203125 453.265625 C 55.277344 458.859375 59.808594 462.683594 63.945313 466.152344 C 62.609375 468.601563 61.261719 471.050781 59.945313 473.515625 C 53.453125 471.609375 46.484375 470.222656 41.109375 465.855469 C 37.191406 462.804688 34.402344 458.628906 31.695313 454.53125 C 34.222656 452.980469 36.796875 451.46875 39.367188 449.988281 C 41.328125 453.265625 43.628906 456.355469 46.445313 458.96875 "/>
<path style=" stroke:none;fill-rule:nonzero;fill:rgb(22.75238%,6.272888%,6.665039%);fill-opacity:1;" d="M 483.503906 427.410156 C 485.746094 425.464844 488.007813 423.53125 490.308594 421.628906 C 498.402344 432.066406 503.820313 445.929688 499.480469 459.078125 C 502.335938 456.421875 504.609375 453.238281 506.664063 449.945313 C 509.234375 451.46875 511.808594 452.992188 514.378906 454.546875 C 511.304688 458.980469 508.269531 463.648438 503.738281 466.75 C 498.5 470.519531 492.007813 471.71875 485.964844 473.609375 C 484.644531 471.066406 483.351563 468.519531 482.089844 465.976563 C 487.300781 462.382813 491.859375 457.101563 492.292969 450.515625 C 492.785156 441.972656 488.359375 434.105469 483.503906 427.410156 "/>
<path style=" stroke:none;fill-rule:nonzero;fill:rgb(22.75238%,6.272888%,6.665039%);fill-opacity:1;" d="M 207.359375 569.519531 C 201.753906 581.914063 197.015625 594.898438 195.519531 608.503906 C 212.976563 615.976563 226.941406 632.359375 228.339844 651.738281 C 234.519531 652.851563 240.804688 652.839844 247.050781 653.109375 C 247.433594 645.367188 248.34375 637.679688 249.023438 629.976563 C 238.5625 622.808594 237.445313 609.023438 236.4375 597.507813 C 230.804688 595.738281 225.292969 593.398438 220.667969 589.683594 C 222.667969 587.617188 224.640625 585.519531 226.585938 583.398438 C 241.5 592.582031 259.679688 593.605469 276.746094 593.34375 C 291.304688 593.058594 306.75 591.425781 319.269531 583.328125 C 321.339844 585.453125 323.378906 587.589844 325.421875 589.738281 C 320.617188 593.316406 315.132813 595.769531 309.457031 597.578125 C 308.449219 609.171875 307.15625 622.847656 296.816406 630.183594 C 297.835938 637.816406 298.054688 645.546875 298.980469 653.207031 C 305.183594 652.785156 311.445313 652.796875 317.609375 651.789063 C 318.808594 632.289063 333.011719 615.90625 350.5 608.4375 C 348.511719 594.898438 344.457031 581.671875 338.375 569.421875 C 333.816406 572.363281 328.347656 573.328125 323.023438 572.375 C 289.644531 567.898438 255.734375 567.925781 222.355469 572.457031 C 217.113281 573.476563 211.957031 571.941406 207.359375 569.519531 M 197.871094 554.738281 C 206.460938 557.597656 213.78125 566.101563 223.511719 563.597656 C 256.453125 559.21875 289.917969 559.21875 322.863281 563.652344 C 332.304688 565.828125 339.695313 557.925781 347.832031 554.550781 C 349.234375 557.078125 350.609375 559.652344 351.941406 562.25 C 350.0625 563.273438 348.199219 564.304688 346.335938 565.328125 C 353.304688 580.691406 358.8125 597.058594 359.523438 614.027344 C 353.03125 617.160156 345.96875 619.648438 340.605469 624.753906 C 332.878906 631.257813 327.542969 640.644531 326.589844 650.769531 C 326.085938 653.425781 326.535156 656.867188 323.84375 658.5 C 320.738281 660.445313 316.957031 660.703125 313.417969 661.03125 C 305.945313 661.316406 298.476563 662.28125 291.007813 661.644531 C 289.847656 648.742188 288.542969 635.871094 287.738281 622.957031 C 290.175781 622.234375 293.25 622.304688 294.882813 620.03125 C 298.585938 615.117188 299.308594 608.734375 300.164063 602.828125 C 300.285156 602.121094 300.519531 600.679688 300.625 599.972656 C 282.339844 602.925781 263.628906 602.953125 245.339844 600 C 246.167969 606.355469 247.066406 612.832031 249.867188 618.683594 C 251.554688 621.894531 255.285156 622.261719 258.402344 623.121094 C 257.027344 636.007813 255.953125 648.921875 255.027344 661.847656 C 246.101563 662.023438 237.1875 661.4375 228.3125 660.597656 C 225.007813 660.039063 220.09375 658.988281 219.902344 654.839844 C 219.128906 647.492188 217.523438 640.0625 213.316406 633.855469 C 207.179688 624.097656 196.851563 617.894531 186.128906 614.300781 C 187.203125 597.195313 192.554688 580.757813 199.613281 565.246094 C 197.765625 564.238281 195.925781 563.246094 194.105469 562.265625 C 195.367188 559.761719 196.636719 557.257813 197.871094 554.738281 "/>
<path style=" stroke:none;fill-rule:nonzero;fill:rgb(64.256287%,14.109802%,12.939453%);fill-opacity:1;" d="M 197.871094 554.738281 C 196.636719 557.257813 195.367188 559.761719 194.105469 562.265625 C 195.925781 563.246094 197.765625 564.238281 199.613281 565.246094 C 192.550781 580.757813 187.203125 597.195313 186.128906 614.300781 C 196.851563 617.894531 207.179688 624.097656 213.316406 633.855469 C 217.523438 640.0625 219.128906 647.492188 219.902344 654.839844 C 220.09375 658.988281 225.007813 660.039063 228.3125 660.597656 C 237.1875 661.441406 246.097656 662.023438 255.027344 661.847656 C 255.953125 648.921875 257.027344 636.007813 258.402344 623.121094 C 255.285156 622.261719 251.554688 621.894531 249.867188 618.683594 C 251.023438 617.976563 252.25 617.402344 253.527344 616.96875 C 269.464844 614.085938 286.203125 611.566406 300.164063 602.828125 C 299.304688 608.734375 298.585938 615.117188 294.882813 620.03125 C 293.25 622.304688 290.175781 622.234375 287.738281 622.957031 C 288.542969 635.871094 289.847656 648.742188 291.007813 661.644531 C 298.476563 662.28125 305.945313 661.316406 313.417969 661.03125 C 316.957031 660.703125 320.738281 660.445313 323.839844 658.5 C 326.535156 656.867188 326.085938 653.425781 326.589844 650.769531 C 327.542969 640.648438 332.878906 631.257813 340.605469 624.753906 C 345.96875 619.648438 353.03125 617.160156 359.519531 614.03125 C 358.8125 597.0625 353.304688 580.691406 346.335938 565.328125 C 348.199219 564.304688 350.0625 563.273438 351.941406 562.253906 C 350.609375 559.652344 349.234375 557.082031 347.832031 554.550781 C 339.695313 557.925781 332.304688 565.828125 322.863281 563.652344 C 289.917969 559.21875 256.453125 559.21875 223.511719 563.597656 C 213.78125 566.101563 206.460938 557.597656 197.871094 554.738281 M 424.933594 548.738281 C 434.992188 536.683594 443.578125 523.523438 452.613281 510.71875 C 448.054688 538.136719 442.828125 565.761719 432.539063 591.699219 C 427.832031 604.179688 419.152344 614.410156 411.707031 625.269531 C 396.410156 647.027344 381.769531 669.332031 364.40625 689.539063 C 359.644531 694.683594 354.296875 699.664063 347.765625 702.425781 C 336.226563 704.046875 324.890625 706.890625 313.308594 708.210938 C 287.984375 711.242188 261.449219 710.671875 237.609375 700.738281 C 213.765625 691.214844 194.183594 673.753906 177.027344 655.085938 C 147.171875 622.480469 120.675781 585.019531 109.421875 541.691406 C 108.863281 539.242188 108.535156 536.777344 108.089844 534.328125 C 123.953125 554.289063 140.09375 575.695313 163.554688 587.152344 C 163.296875 592.203125 162.710938 597.238281 162.382813 602.300781 C 165.144531 602.570313 167.921875 602.84375 170.710938 603.144531 C 173.078125 586.597656 172.847656 569.3125 179.636719 553.746094 C 182.496094 547.226563 186.402344 540.507813 193.054688 537.28125 C 201.097656 533.253906 209.902344 531.019531 218.625 528.9375 C 241.675781 524.136719 265.394531 520.40625 288.976563 523.007813 C 303.089844 524.273438 317.117188 526.597656 330.902344 529.90625 C 338.457031 531.863281 346.132813 533.863281 353.070313 537.578125 C 360.160156 541.484375 364.269531 549.011719 366.976563 556.371094 C 372.695313 571.285156 372.433594 587.480469 374.394531 603.128906 C 377.128906 602.84375 379.890625 602.585938 382.667969 602.328125 C 382.476563 597.183594 381.945313 592.054688 381.539063 586.921875 C 399.066406 578.226563 412.578125 563.53125 424.933594 548.738281 "/>
<path style=" stroke:none;fill-rule:nonzero;fill:rgb(53.709412%,8.616638%,9.812927%);fill-opacity:1;" d="M 94.097656 514.214844 C 98.957031 520.746094 103.734375 527.46875 108.089844 534.328125 C 108.535156 536.777344 108.863281 539.242188 109.421875 541.691406 C 120.675781 585.019531 147.171875 622.480469 177.027344 655.085938 C 194.183594 673.753906 213.765625 691.214844 237.609375 700.738281 C 261.449219 710.671875 287.984375 711.246094 313.308594 708.210938 C 324.890625 706.890625 336.222656 704.046875 347.765625 702.425781 C 315.582031 728.050781 270.320313 734.5 231.578125 721.640625 C 216.597656 716.660156 203.738281 707.285156 190.90625 698.386719 C 181.515625 691.933594 175.339844 682.125 168.195313 673.46875 C 152.679688 653.34375 138.910156 631.9375 123.996094 611.363281 C 113.910156 598.027344 108.984375 581.777344 104.523438 565.910156 C 100.128906 548.890625 96.074219 531.675781 94.097656 514.214844 "/>
<path style=" stroke:none;fill-rule:nonzero;fill:rgb(53.709412%,9.008789%,10.205078%);fill-opacity:1;" d="M 245.339844 600 C 263.628906 602.953125 282.339844 602.925781 300.628906 599.972656 C 300.519531 600.679688 300.285156 602.121094 300.164063 602.828125 C 286.203125 611.566406 269.464844 614.085938 253.527344 616.96875 C 252.25 617.402344 251.023438 617.976563 249.867188 618.683594 C 247.066406 612.832031 246.167969 606.355469 245.339844 600 "/>
<path style=" stroke:none;fill-rule:nonzero;fill:rgb(4.315186%,30.200195%,59.179688%);fill-opacity:1;" d="M 360.515625 715.054688 C 363.15625 713.488281 365.671875 711.707031 368.082031 709.789063 C 379.226563 716.917969 390.289063 724.144531 401.367188 731.398438 C 414.714844 740.367188 425.085938 753.292969 432.078125 767.691406 C 441.429688 786.671875 445.375 807.875 446.355469 828.886719 C 428.90625 828.722656 411.464844 828.992188 394.019531 828.761719 C 393.910156 819.742188 394.125 810.730469 393.976563 801.722656 C 394.125 797.136719 390.246094 792.6875 385.566406 792.8125 C 380.695313 792.390625 376.257813 797.027344 376.722656 801.847656 C 376.804688 858.046875 376.695313 914.246094 376.789063 970.433594 C 371.332031 970.503906 365.875 970.296875 360.445313 970.71875 C 360.433594 885.492188 360.324219 800.269531 360.515625 715.054688 "/>
<path style=" stroke:none;fill-rule:nonzero;fill:rgb(4.315186%,30.200195%,59.179688%);fill-opacity:1;" d="M 143.902344 776.617188 C 155.703125 758.273438 172.863281 743.6875 192.621094 734.527344 C 192.550781 770.386719 192.714844 806.242188 192.550781 842.097656 C 185.898438 828.285156 183.230469 812.855469 176.140625 799.21875 C 174.5625 795.941406 171.730469 792.660156 167.773438 792.824219 C 163.378906 792.390625 159.144531 796.089844 158.914063 800.484375 C 158.546875 809.929688 159.035156 819.386719 158.710938 828.84375 C 141.398438 828.9375 124.078125 828.597656 106.769531 828.707031 C 106.851563 825.046875 106.960938 821.386719 107.242188 817.738281 C 107.597656 820.910156 108.113281 824.082031 108.605469 827.253906 C 113.980469 827.59375 119.367188 827.511719 124.730469 827.0625 C 128.824219 809.535156 133.386719 791.570313 143.902344 776.617188 "/>
<path style=" stroke:none;fill-rule:nonzero;fill:rgb(4.315186%,30.200195%,59.179688%);fill-opacity:1;" d="M 248.453125 752.515625 C 257.898438 761.757813 267.136719 771.226563 276.527344 780.550781 C 285.820313 771.226563 294.992188 761.769531 304.519531 752.679688 C 304.367188 768.480469 304.4375 784.289063 304.519531 800.089844 C 297.089844 799.285156 289.589844 799.34375 282.144531 799.710938 C 275.5625 799.996094 269.925781 805.96875 270.296875 812.597656 C 270.238281 823.507813 270.253906 834.4375 270.296875 845.351563 C 269.980469 851.363281 274.6875 856.929688 280.636719 857.734375 C 288.378906 858.535156 296.230469 858.304688 303.972656 857.570313 C 303.878906 895.195313 303.960938 932.820313 303.960938 970.449219 C 285.464844 970.488281 266.960938 969.875 248.496094 970.789063 C 248.453125 917.566406 248.34375 864.347656 248.519531 811.140625 L 249.9375 810.675781 C 249.964844 826.488281 249.9375 842.300781 249.949219 858.128906 C 253.707031 858.113281 257.476563 858.128906 261.246094 858.140625 C 261.203125 838.585938 261.246094 819.019531 261.21875 799.464844 C 256.972656 799.492188 252.699219 799.316406 248.519531 800.117188 C 248.332031 784.25 248.507813 768.382813 248.453125 752.515625 "/>
<path style=" stroke:none;fill-rule:nonzero;fill:rgb(4.315186%,30.200195%,59.179688%);fill-opacity:1;" d="M 286.910156 809.886719 C 291.304688 809.929688 297.089844 808.390625 300.285156 812.351563 C 301.632813 820.503906 300.464844 828.910156 300.898438 837.171875 C 300.613281 840.546875 301.960938 845.785156 297.78125 847.242188 C 293.089844 847.8125 287.984375 848.328125 283.453125 846.710938 C 280.703125 844.316406 281.507813 840.425781 281.371094 837.226563 C 281.519531 829.933594 281.234375 822.640625 281.480469 815.359375 C 281.261719 812.269531 283.929688 809.847656 286.910156 809.886719 "/>
<path style=" stroke:none;fill-rule:nonzero;fill:rgb(4.315186%,30.200195%,59.179688%);fill-opacity:1;" d="M 197.085938 1013.9375 C 214.148438 1013.066406 231.238281 1013.804688 248.332031 1013.640625 C 249.527344 1016.730469 247.527344 1020.496094 247.023438 1023.789063 C 241.554688 1027.410156 237.011719 1032.417969 234.410156 1038.488281 C 232.585938 1042.027344 231.472656 1047.6875 226.300781 1047.140625 C 215.78125 1046.242188 206.199219 1041.128906 197.234375 1035.902344 C 197.371094 1028.566406 197.273438 1021.246094 197.085938 1013.9375 "/>
<path style=" stroke:none;fill-rule:nonzero;fill:rgb(4.315186%,30.200195%,59.179688%);fill-opacity:1;" d="M 312.96875 1013.382813 C 330.292969 1013.394531 347.628906 1013.355469 364.964844 1013.394531 C 364.925781 1018.539063 364.910156 1023.695313 364.925781 1028.851563 C 354.199219 1038.023438 341.097656 1045.277344 326.957031 1047.089844 C 320.277344 1047.5625 319.433594 1039.480469 317.324219 1034.855469 C 316.492188 1027.574219 314.984375 1020.402344 312.96875 1013.382813 "/>
<path style=" stroke:none;fill-rule:nonzero;fill:rgb(6.665039%,26.660156%,51.367188%);fill-opacity:1;" d="M 180.371094 712.660156 C 184.714844 714.144531 188.335938 718.035156 192.539063 720.238281 C 192.605469 725.003906 192.621094 729.765625 192.621094 734.527344 C 172.859375 743.6875 155.703125 758.273438 143.902344 776.617188 C 133.386719 791.570313 128.824219 809.535156 124.730469 827.0625 C 119.367188 827.511719 113.980469 827.59375 108.605469 827.253906 C 108.113281 824.082031 107.597656 820.910156 107.242188 817.738281 C 109.964844 786.089844 122.117188 752.980469 148.421875 733.46875 C 158.953125 726.351563 169.554688 719.285156 180.371094 712.660156 "/>
<path style=" stroke:none;fill-rule:nonzero;fill:rgb(6.665039%,26.660156%,51.367188%);fill-opacity:1;" d="M 176.140625 799.21875 C 183.230469 812.855469 185.898438 828.285156 192.550781 842.097656 C 192.890625 884.949219 192.566406 927.816406 192.714844 970.664063 C 187.164063 970.734375 181.609375 970.773438 176.085938 970.558594 C 175.488281 957.835938 175.746094 945.082031 175.949219 932.359375 C 175.570313 893.835938 175.882813 855.3125 175.773438 816.789063 C 175.71875 810.921875 175.867188 805.058594 176.140625 799.21875 "/>
<path style=" stroke:none;fill-rule:nonzero;fill:rgb(56.834412%,17.651367%,22.75238%);fill-opacity:1;" d="M 192.539063 720.238281 C 202.800781 726.976563 213.414063 733.355469 225.089844 737.34375 C 228.914063 738.757813 232.980469 739.496094 236.722656 741.152344 C 240.832031 744.027344 244.046875 747.984375 247.339844 751.742188 C 229.101563 750.367188 212.09375 742.542969 196.851563 732.855469 C 195.425781 733.398438 194.023438 733.957031 192.621094 734.527344 C 192.621094 729.765625 192.605469 725.003906 192.539063 720.238281 "/>
<path style=" stroke:none;fill-rule:nonzero;fill:rgb(63.476563%,41.967773%,38.818359%);fill-opacity:1;" d="M 265.464844 744.855469 C 273.085938 744.964844 280.730469 745.128906 288.3125 744.109375 C 285.820313 746.691406 283.34375 749.277344 280.773438 751.769531 C 278.160156 751.644531 275.574219 751.726563 272.988281 751.890625 L 272.160156 751.945313 C 269.953125 749.550781 267.710938 747.210938 265.464844 744.855469 "/>
<path style=" stroke:none;fill-rule:nonzero;fill:rgb(86.71875%,53.709412%,37.646484%);fill-opacity:1;" d="M 272.988281 751.890625 C 275.574219 751.726563 278.160156 751.644531 280.773438 751.769531 C 279.304688 753.253906 277.859375 754.75 276.40625 756.246094 C 275.234375 754.804688 274.105469 753.347656 272.988281 751.890625 "/>
<path style=" stroke:none;fill-rule:nonzero;fill:rgb(97.264099%,93.359375%,7.446289%);fill-opacity:1;" d="M 238.804688 806.023438 C 242.058594 804.078125 245.257813 802.035156 248.519531 800.117188 C 252.699219 799.316406 256.972656 799.492188 261.21875 799.464844 C 261.246094 819.019531 261.203125 838.589844 261.246094 858.140625 C 257.476563 858.128906 253.707031 858.113281 249.949219 858.128906 C 249.9375 842.300781 249.964844 826.488281 249.9375 810.675781 L 248.519531 811.140625 C 245.3125 812.050781 242.070313 812.828125 238.847656 813.644531 C 238.820313 811.101563 238.804688 808.554688 238.804688 806.023438 "/>
<path style=" stroke:none;fill-rule:nonzero;fill:rgb(97.65625%,93.359375%,7.446289%);fill-opacity:1;" d="M 286.910156 809.886719 C 283.929688 809.847656 281.261719 812.269531 281.480469 815.359375 C 281.234375 822.640625 281.519531 829.933594 281.371094 837.226563 C 281.507813 840.425781 280.703125 844.316406 283.453125 846.710938 C 287.984375 848.328125 293.089844 847.8125 297.78125 847.242188 C 301.960938 845.785156 300.613281 840.546875 300.898438 837.171875 C 300.464844 828.910156 301.632813 820.503906 300.285156 812.351563 C 297.089844 808.390625 291.304688 809.929688 286.910156 809.886719 M 270.296875 812.597656 C 269.925781 805.96875 275.5625 799.996094 282.144531 799.710938 C 289.589844 799.34375 297.089844 799.285156 304.519531 800.089844 C 307.769531 802.035156 310.996094 804.742188 311.675781 808.703125 C 312.804688 814.9375 312.113281 821.320313 312.246094 827.617188 C 312.070313 834.421875 312.75 841.28125 311.851563 848.070313 C 311.472656 852.222656 308.027344 854.890625 305.144531 857.449219 L 303.972656 857.570313 C 296.230469 858.304688 288.378906 858.535156 280.636719 857.734375 C 274.6875 856.929688 269.980469 851.363281 270.296875 845.351563 C 270.253906 834.4375 270.238281 823.511719 270.296875 812.597656 "/>
<path style=" stroke:none;fill-rule:nonzero;fill:rgb(96.875%,59.568787%,39.988708%);fill-opacity:1;" d="M 112.183594 846.097656 C 116.363281 846.207031 120.554688 846.289063 124.742188 845.976563 C 125.03125 848.398438 125.382813 850.820313 125.804688 853.257813 C 121.191406 850.792969 116.019531 849.621094 110.835938 850.699219 C 111.285156 849.148438 111.734375 847.621094 112.183594 846.097656 "/>
<path style=" stroke:none;fill-rule:nonzero;fill:rgb(20.776367%,24.705505%,17.651367%);fill-opacity:1;" d="M 129.765625 879.65625 C 129.289063 883.042969 128.269531 886.324219 126.539063 889.289063 C 127.617188 890.921875 128.691406 892.542969 129.792969 894.203125 C 131.957031 890.867188 133.996094 887.332031 134.539063 883.328125 C 135.875 880.253906 131.4375 880.511719 129.765625 879.65625 M 137.074219 870.035156 C 139.671875 879.234375 138.269531 890.296875 131.179688 897.167969 C 129.628906 898.992188 126.296875 899.484375 125.898438 902.066406 C 129.628906 902.136719 132.757813 899.550781 135.425781 897.238281 C 141.824219 890.882813 144.082031 881.492188 144.1875 872.757813 C 141.796875 871.886719 139.414063 870.972656 137.074219 870.035156 M 126.949219 866.726563 C 128.253906 869.75 129.03125 872.945313 129.96875 876.117188 C 131.207031 876.554688 133.710938 877.4375 134.964844 877.871094 C 134.539063 872.867188 133.167969 868.007813 130.785156 863.597656 C 129.492188 864.617188 128.214844 865.667969 126.949219 866.726563 M 120.730469 854.617188 C 120.402344 855.71875 119.734375 857.925781 119.410156 859.027344 C 121.421875 860.660156 123.4375 862.332031 125.4375 864.019531 C 126.554688 862.78125 127.65625 861.53125 128.730469 860.25 C 126.296875 858.058594 123.695313 856.046875 120.730469 854.617188 M 128.417969 850.167969 C 129.820313 856.699219 132.855469 863.121094 138.40625 867.121094 C 136.011719 862.6875 134.828125 857.773438 134.488281 852.78125 C 132.488281 851.839844 130.460938 850.972656 128.417969 850.167969 M 124.746094 845.976563 C 125.300781 846.113281 126.433594 846.386719 126.988281 846.519531 C 129.683594 847.257813 132.339844 848.167969 134.992188 849.078125 C 135.195313 848.359375 135.605469 846.914063 135.820313 846.195313 L 136.011719 845.539063 C 136.621094 845.71875 137.863281 846.097656 138.488281 846.289063 C 138.351563 851.992188 137.316406 858.15625 140.1875 863.394531 C 141.5625 866.265625 144.109375 868.265625 146.488281 870.28125 C 148.054688 861.953125 146.761719 852.496094 139.535156 847.121094 C 140.503906 846.875 142.433594 846.386719 143.386719 846.140625 C 149.90625 852.113281 151.292969 861.367188 149.390625 869.667969 C 146.882813 878.511719 146.515625 888.296875 140.953125 895.984375 C 137.929688 900.746094 132.746094 903.308594 127.996094 906.015625 C 135.5625 904.695313 142.925781 901.320313 147.671875 895.085938 C 147.808594 896.980469 147.589844 898.800781 147.035156 900.570313 C 142.203125 905.390625 135.671875 908.042969 128.949219 908.816406 C 127.042969 905.390625 124.007813 902.570313 123.832031 898.421875 C 124.675781 897.851563 126.378906 896.691406 127.21875 896.121094 C 126.214844 894.761719 125.246094 893.371094 124.144531 892.132813 C 123.015625 892.488281 121.914063 892.894531 120.824219 893.371094 L 120.621094 893.453125 C 119.4375 890.597656 118.226563 887.753906 117.109375 884.894531 L 117.246094 884.621094 C 119.109375 881.589844 120.550781 877.96875 119.246094 874.417969 C 118.441406 870.894531 114.894531 869.421875 112.226563 867.570313 C 110.511719 864.933594 111.246094 861.285156 110.78125 858.265625 C 112.621094 858.15625 114.46875 858.085938 116.335938 858.007813 C 116.703125 856.523438 117.070313 855.054688 117.449219 853.609375 C 115.300781 853.773438 113.148438 853.964844 111.015625 854.15625 C 110.972656 853.285156 110.878906 851.570313 110.835938 850.699219 C 116.019531 849.621094 121.191406 850.792969 125.804688 853.257813 C 125.382813 850.820313 125.027344 848.398438 124.746094 845.976563 "/>
<path style=" stroke:none;fill-rule:nonzero;fill:rgb(99.21875%,68.554688%,50.193787%);fill-opacity:1;" d="M 143.386719 846.140625 C 145.171875 846.179688 146.953125 846.261719 148.75 846.371094 C 151.496094 862.429688 151.730469 879.261719 147.671875 895.089844 C 142.925781 901.320313 135.5625 904.695313 127.996094 906.015625 C 132.746094 903.308594 137.929688 900.746094 140.949219 895.984375 C 146.515625 888.296875 146.882813 878.511719 149.386719 869.667969 C 151.292969 861.367188 149.90625 852.113281 143.386719 846.140625 "/>
<path style=" stroke:none;fill-rule:nonzero;fill:rgb(70.117188%,32.151794%,56.834412%);fill-opacity:1;" d="M 138.488281 846.289063 C 138.746094 846.492188 139.277344 846.914063 139.535156 847.117188 C 146.761719 852.492188 148.054688 861.953125 146.488281 870.28125 C 144.109375 868.265625 141.5625 866.265625 140.1875 863.394531 C 137.316406 858.15625 138.351563 851.992188 138.488281 846.289063 "/>
<path style=" stroke:none;fill-rule:nonzero;fill:rgb(70.896912%,31.37207%,57.226563%);fill-opacity:1;" d="M 128.417969 850.167969 C 130.460938 850.972656 132.488281 851.839844 134.488281 852.78125 C 134.828125 857.773438 136.011719 862.6875 138.40625 867.121094 C 132.855469 863.121094 129.820313 856.699219 128.417969 850.167969 "/>
<path style=" stroke:none;fill-rule:nonzero;fill:rgb(99.21875%,59.568787%,41.575623%);fill-opacity:1;" d="M 111.015625 854.15625 C 113.148438 853.964844 115.300781 853.773438 117.449219 853.609375 C 117.070313 855.054688 116.703125 856.523438 116.335938 858.007813 C 114.46875 858.089844 112.621094 858.15625 110.78125 858.265625 C 110.835938 857.242188 110.945313 855.175781 111.015625 854.15625 "/>
<path style=" stroke:none;fill-rule:nonzero;fill:rgb(94.53125%,56.443787%,38.818359%);fill-opacity:1;" d="M 120.730469 854.617188 C 123.695313 856.046875 126.296875 858.058594 128.730469 860.25 C 127.65625 861.53125 126.554688 862.78125 125.4375 864.019531 C 123.4375 862.332031 121.425781 860.660156 119.410156 859.027344 C 119.738281 857.925781 120.402344 855.71875 120.730469 854.617188 "/>
<path style=" stroke:none;fill-rule:nonzero;fill:rgb(99.609375%,68.164063%,50.976563%);fill-opacity:1;" d="M 126.949219 866.726563 C 128.214844 865.667969 129.492188 864.617188 130.785156 863.597656 C 133.167969 868.007813 134.542969 872.863281 134.964844 877.875 C 133.710938 877.4375 131.207031 876.554688 129.96875 876.117188 C 129.03125 872.945313 128.253906 869.75 126.949219 866.726563 "/>
<path style=" stroke:none;fill-rule:nonzero;fill:rgb(94.921875%,57.226563%,40.380859%);fill-opacity:1;" d="M 112.226563 867.570313 C 114.890625 869.421875 118.445313 870.890625 119.246094 874.417969 C 120.554688 877.96875 119.109375 881.589844 117.246094 884.621094 C 114.863281 879.179688 112.988281 873.476563 112.226563 867.570313 "/>
<path style=" stroke:none;fill-rule:nonzero;fill:rgb(99.609375%,69.726563%,51.756287%);fill-opacity:1;" d="M 137.074219 870.035156 C 139.414063 870.972656 141.796875 871.886719 144.191406 872.757813 C 144.082031 881.492188 141.820313 890.882813 135.425781 897.238281 C 132.757813 899.550781 129.628906 902.136719 125.902344 902.066406 C 126.296875 899.480469 129.628906 898.992188 131.179688 897.167969 C 138.269531 890.296875 139.671875 879.234375 137.074219 870.035156 "/>
<path style=" stroke:none;fill-rule:nonzero;fill:rgb(99.21875%,68.164063%,50.193787%);fill-opacity:1;" d="M 129.765625 879.65625 C 131.4375 880.511719 135.875 880.253906 134.539063 883.328125 C 133.996094 887.332031 131.957031 890.867188 129.792969 894.203125 C 128.691406 892.542969 127.617188 890.921875 126.539063 889.289063 C 128.269531 886.324219 129.289063 883.042969 129.765625 879.65625 "/>
<path style=" stroke:none;fill-rule:nonzero;fill:rgb(92.1875%,56.054688%,38.426208%);fill-opacity:1;" d="M 116.210938 922.96875 C 119.285156 919.242188 122.226563 915.402344 125.5625 911.921875 C 123.953125 920.902344 122.796875 930.128906 124.117188 939.230469 C 125.207031 948.675781 128.351563 957.683594 131.277344 966.664063 C 130.433594 970.054688 126.308594 971.113281 123.371094 969.890625 C 121.246094 968.542969 120.347656 966.105469 119.980469 963.738281 C 117.832031 952.824219 115.246094 941.992188 113.148438 931.066406 C 112.128906 927.894531 114.414063 925.269531 116.210938 922.96875 "/>
<path style=" stroke:none;fill-rule:nonzero;fill:rgb(92.1875%,56.054688%,38.426208%);fill-opacity:1;" d="M 395.078125 930.167969 C 397.390625 924.371094 400.605469 919.023438 403.992188 913.8125 C 404.347656 919.484375 404.074219 925.445313 406.632813 930.714844 C 402.820313 931.421875 398.371094 933.164063 395.078125 930.167969 "/>
<path style=" stroke:none;fill-rule:nonzero;fill:rgb(99.609375%,67.771912%,49.414063%);fill-opacity:1;" d="M 188.6875 996.125 C 188.675781 994.179688 188.6875 992.246094 188.6875 990.328125 C 210.582031 990.289063 232.476563 990.34375 254.371094 990.273438 C 253.910156 992.234375 253.433594 994.207031 252.972656 996.179688 C 231.539063 996.246094 210.105469 996.207031 188.6875 996.125 "/>
<path style=" stroke:none;fill-rule:nonzero;fill:rgb(95.701599%,58.396912%,39.598083%);fill-opacity:1;" d="M 298.871094 990.289063 C 301.808594 990.273438 304.777344 990.289063 307.742188 990.300781 C 308.164063 992.234375 308.613281 994.207031 309.0625 996.179688 C 306.136719 996.167969 303.226563 996.167969 300.328125 996.195313 C 299.824219 994.207031 299.335938 992.234375 298.871094 990.289063 "/>
<path style=" stroke:none;fill-rule:nonzero;fill:rgb(99.609375%,70.117188%,51.367188%);fill-opacity:1;" d="M 307.742188 990.300781 C 326.792969 990.328125 345.832031 990.328125 364.867188 990.289063 C 364.84375 992.261719 364.828125 994.246094 364.828125 996.25 C 346.238281 996.113281 327.652344 996.207031 309.0625 996.179688 C 308.613281 994.207031 308.164063 992.234375 307.742188 990.300781 "/>
<path style=" stroke:none;fill-rule:nonzero;fill:rgb(7.054138%,25.097656%,45.483398%);fill-opacity:1;" d="M 188.621094 1013.324219 C 208.761719 1013.394531 228.941406 1013.175781 249.066406 1013.421875 C 248.890625 1013.476563 248.507813 1013.585938 248.332031 1013.640625 C 231.238281 1013.800781 214.148438 1013.066406 197.085938 1013.9375 C 197.273438 1021.246094 197.371094 1028.566406 197.234375 1035.902344 C 194.292969 1033.722656 190.878906 1031.957031 188.6875 1028.976563 C 188.253906 1023.761719 188.644531 1018.539063 188.621094 1013.324219 "/>
<path style=" stroke:none;fill-rule:nonzero;fill:rgb(7.054138%,24.705505%,45.483398%);fill-opacity:1;" d="M 304.042969 1013.273438 C 307.007813 1013.285156 309.988281 1013.339844 312.96875 1013.382813 C 314.984375 1020.402344 316.492188 1027.574219 317.324219 1034.855469 C 314.097656 1030.71875 310.21875 1027.207031 306.449219 1023.601563 C 305.132813 1020.292969 304.789063 1016.699219 304.042969 1013.273438 "/>
<path style=" stroke:none;fill-rule:nonzero;fill:rgb(0%,67.771912%,93.75%);fill-opacity:1;" d="M 377.101563 1041.058594 C 379.757813 1038.800781 382.367188 1036.378906 385.539063 1034.867188 C 388.207031 1035.304688 389.976563 1038.121094 392.179688 1039.644531 C 388.164063 1044.460938 382.082031 1048.351563 380.914063 1054.9375 C 380.285156 1061.933594 387.011719 1067.90625 393.921875 1066.722656 C 395.132813 1072.886719 401.011719 1077.121094 407.300781 1076.019531 C 408.359375 1083.554688 417.464844 1088.222656 423.996094 1083.910156 C 429.070313 1079.828125 432.800781 1074.332031 437.359375 1069.71875 C 447.753906 1076.046875 458.832031 1081.433594 468.25 1089.203125 C 447.726563 1095.613281 425.984375 1096.441406 404.644531 1096.253906 C 389.117188 1096.265625 373.59375 1095.300781 358.203125 1093.355469 C 342.933594 1091.148438 328.429688 1085.667969 314.289063 1079.691406 C 306.640625 1076.371094 298.175781 1075.296875 289.972656 1076.78125 C 289.753906 1074.78125 289.550781 1072.804688 289.441406 1070.820313 C 291.019531 1060.558594 295.414063 1050.855469 301.117188 1042.242188 C 304.710938 1048.558594 306.4375 1056.613281 313.171875 1060.558594 C 322.550781 1066.355469 334.320313 1064.191406 344.144531 1060.777344 C 356.175781 1056.21875 367.632813 1049.808594 377.101563 1041.058594 "/>
<path style=" stroke:none;fill-rule:nonzero;fill:rgb(0%,67.771912%,93.75%);fill-opacity:1;" d="M 160.996094 1039.496094 C 162.914063 1037.847656 164.820313 1036.175781 166.699219 1034.5 C 170.128906 1036.253906 173.230469 1038.597656 176.058594 1041.210938 C 185.816406 1050.148438 197.628906 1056.695313 210.039063 1061.199219 C 219.59375 1064.300781 230.96875 1066.207031 239.921875 1060.464844 C 245.242188 1057.238281 247.664063 1051.332031 249.949219 1045.863281 C 250.714844 1044.910156 250.796875 1042.324219 252.507813 1043.101563 C 259.121094 1053.320313 263.519531 1065.105469 264.335938 1077.308594 C 258.578125 1076.277344 252.605469 1075.363281 246.863281 1077.039063 C 235.609375 1080.074219 225.308594 1085.828125 214.066406 1088.945313 C 196.878906 1094.308594 178.796875 1095.179688 160.941406 1096.0625 C 135.25 1096.785156 109.121094 1096.5 84.21875 1089.394531 C 94.042969 1081.828125 105 1075.867188 115.777344 1069.785156 C 120.105469 1074.5625 124.050781 1079.8125 129.070313 1083.910156 C 135.644531 1088.265625 144.460938 1083.394531 145.851563 1076.03125 C 152.015625 1077.066406 157.851563 1072.875 158.941406 1066.722656 C 165.363281 1067.746094 171.882813 1062.941406 172.019531 1056.273438 C 171.976563 1048.910156 164.902344 1044.871094 160.996094 1039.496094 "/>
<path style=" stroke:none;fill-rule:nonzero;fill:rgb(100%,100%,99.609375%);fill-opacity:1;" d="M 142.378906 1036.488281 C 144.242188 1036.023438 146.707031 1033.886719 148.339844 1035.996094 C 153.714844 1041.617188 158.941406 1047.429688 164.125 1053.238281 C 166.464844 1056.125 164.058594 1059.59375 160.941406 1060.4375 C 154.464844 1056.097656 150.3125 1049.277344 144.722656 1043.972656 C 142.378906 1042.148438 141.660156 1039.289063 142.378906 1036.488281 "/>
<path style=" stroke:none;fill-rule:nonzero;fill:rgb(100%,100%,99.609375%);fill-opacity:1;" d="M 404.046875 1036.527344 C 406.796875 1032.484375 413.53125 1037.683594 410.402344 1041.441406 C 405.296875 1047.292969 400.085938 1053.074219 394.65625 1058.625 C 391.90625 1062.234375 385.375 1057.441406 388.4375 1053.863281 C 393.472656 1047.945313 398.808594 1042.269531 404.046875 1036.527344 "/>
<path style=" stroke:none;fill-rule:nonzero;fill:rgb(99.609375%,99.609375%,100%);fill-opacity:1;" d="M 130.09375 1045.78125 C 131.808594 1044.296875 134.40625 1043.671875 135.792969 1045.929688 C 140.964844 1051.265625 145.851563 1056.898438 150.816406 1062.4375 C 152.980469 1064.097656 152.53125 1067.730469 149.90625 1068.699219 C 147.605469 1070.410156 145.441406 1068.191406 143.878906 1066.65625 C 138.992188 1061.445313 134.105469 1056.21875 129.492188 1050.761719 C 128.351563 1049.414063 128.445313 1046.636719 130.09375 1045.78125 "/>
<path style=" stroke:none;fill-rule:nonzero;fill:rgb(99.609375%,99.609375%,100%);fill-opacity:1;" d="M 417.449219 1045.6875 C 419.125 1043.15625 422.445313 1044.910156 423.832031 1046.773438 C 425.53125 1049.523438 422.660156 1051.714844 421.082031 1053.632813 C 416.292969 1058.449219 412.277344 1064.042969 407.121094 1068.464844 C 403.910156 1071.417969 398.65625 1066.058594 401.773438 1062.996094 C 406.769531 1057.019531 412.117188 1051.347656 417.449219 1045.6875 "/>
<path style=" stroke:none;fill-rule:nonzero;fill:rgb(99.609375%,100%,99.609375%);fill-opacity:1;" d="M 118.144531 1054.328125 C 119.558594 1053.320313 121.34375 1053.78125 122.363281 1055.128906 C 127.058594 1060.070313 131.574219 1065.171875 136.203125 1070.195313 C 137.34375 1071.621094 139.140625 1073.050781 138.761719 1075.160156 C 138.625 1078.316406 133.777344 1080.003906 131.820313 1077.269531 C 126.335938 1071.773438 121.289063 1065.839844 116.128906 1060.054688 C 114.144531 1058.164063 115.925781 1055.019531 118.144531 1054.328125 "/>
<path style=" stroke:none;fill-rule:nonzero;fill:rgb(99.609375%,99.609375%,99.609375%);fill-opacity:1;" d="M 430.828125 1054.925781 C 433.507813 1051.484375 440 1056.707031 436.855469 1060.042969 C 431.859375 1065.878906 426.621094 1071.539063 421.34375 1077.121094 C 418.472656 1081.269531 411.546875 1076.113281 415.042969 1072.34375 C 420.089844 1066.355469 425.492188 1060.667969 430.828125 1054.925781 "/>
<path style=" stroke:none;fill-rule:nonzero;fill:rgb(11.376953%,58.006287%,74.804688%);fill-opacity:1;" d="M 289.441406 1070.820313 C 289.550781 1072.808594 289.753906 1074.78125 289.972656 1076.78125 C 298.175781 1075.296875 306.640625 1076.371094 314.289063 1079.691406 C 328.429688 1085.664063 342.933594 1091.148438 358.203125 1093.355469 C 373.59375 1095.300781 389.117188 1096.265625 404.644531 1096.253906 C 425.980469 1096.445313 447.726563 1095.613281 468.246094 1089.203125 L 468.601563 1089.109375 C 470.398438 1091.4375 471.976563 1093.953125 472.890625 1096.785156 C 456.070313 1103.929688 437.726563 1107.015625 419.53125 1107.589844 C 404.550781 1108.648438 389.582031 1106.976563 374.570313 1107.398438 C 349.65625 1106.949219 324.316406 1109.167969 299.824219 1103.398438 C 297.019531 1102.527344 293.332031 1101.847656 292.394531 1098.621094 C 288.910156 1089.871094 287.535156 1080.101563 289.441406 1070.820313 "/>
<path style=" stroke:none;fill-rule:nonzero;fill:rgb(11.376953%,58.006287%,74.804688%);fill-opacity:1;" d="M 214.066406 1088.945313 C 225.308594 1085.828125 235.605469 1080.074219 246.859375 1077.039063 C 252.605469 1075.363281 258.578125 1076.277344 264.335938 1077.3125 C 264.375 1085.285156 263.328125 1093.519531 259.585938 1100.660156 C 257.039063 1102.59375 253.789063 1103.234375 250.769531 1103.984375 C 234.710938 1107.410156 218.203125 1107.535156 201.871094 1107.398438 C 183.257813 1107.535156 164.617188 1106.976563 146.039063 1108.121094 C 123.613281 1107.464844 100.234375 1106.214844 79.730469 1096.226563 C 81.160156 1093.886719 82.628906 1091.601563 84.21875 1089.394531 C 109.121094 1096.496094 135.25 1096.785156 160.941406 1096.0625 C 178.796875 1095.175781 196.878906 1094.308594 214.066406 1088.945313 "/>
</g>
</svg>
