<?xml version="1.0" encoding="iso-8859-1"?>
<!-- Generator: Adobe Illustrator 19.0.0, SVG Export Plug-In . SVG Version: 6.00 Build 0)  -->
<svg version="1.1" id="Capa_1" xmlns="http://www.w3.org/2000/svg" xmlns:xlink="http://www.w3.org/1999/xlink" x="0px" y="0px"
	 viewBox="0 0 146.425 146.425" style="enable-background:new 0 0 146.425 146.425;" xml:space="preserve">
<g>
	<g>
		<g>
			<g>
				<path style="fill:#898F94;" d="M128.846,20.379c-7.733-4.771-27.925,7.158-33.295,11.063l27.925,24.401
					C132.927,44.672,132.882,22.87,128.846,20.379z"/>
				<path style="fill:#636466;" d="M127.293,24.967c-5.876-3.875-21.22,5.813-25.301,8.984l21.22,19.816
					C130.395,44.697,130.361,26.991,127.293,24.967z"/>
			</g>
			<g>
				<path style="fill:#898F94;" d="M17.579,20.379c7.733-4.771,27.925,7.158,33.295,11.063L22.949,55.843
					C13.497,44.672,13.542,22.87,17.579,20.379z"/>
				<path style="fill:#636466;" d="M19.132,24.967c5.876-3.875,21.22,5.813,25.301,8.984l-21.22,19.816
					C16.03,44.697,16.064,26.991,19.132,24.967z"/>
			</g>
		</g>
		<path style="fill:#959CA1;" d="M132.979,67.533c-4.573-7.616-29.525-46.721-59.767-46.721c-30.241,0-55.193,39.104-59.766,46.721
			c-0.493,0.821-0.749,1.276-0.749,1.276l60.516,21.145l60.516-21.145C133.728,68.809,133.472,68.354,132.979,67.533z"/>
		<path style="fill:#FFFFFF;" d="M100.25,46.608c-14.762,0-20.729,15.858-27.038,37.742c-6.308-21.884-12.276-37.742-27.038-37.742
			C32.668,46.608,6.912,74.307,0,74.307c0,0,14.11,45.042,73.212,44.983c59.103,0.059,73.213-44.983,73.213-44.983
			C139.513,74.307,113.757,46.608,100.25,46.608z"/>
		<path style="fill:#636466;" d="M97.738,63.577c-21.358-5.584-24.525,19.234-24.525,19.234s-3.167-24.818-24.525-19.234
			s-28.279,27.915-26.07,35.677c2.209,7.761,14.814,21.147,50.595,21.147c35.781,0,48.387-13.387,50.596-21.147
			C126.017,91.492,119.097,69.161,97.738,63.577z"/>
		<path style="fill:#FFFFFF;" d="M88.228,99.221c-7.623-3.605-15.016,9.011-15.016,9.011s-7.392-12.616-15.016-9.011
			c-3.955,1.869-5.824,8.961-6.237,14.417c-0.413,5.457,12.359,13.518,21.253,13.518c8.894,0,21.666-8.061,21.253-13.518
			C94.053,108.182,92.183,101.09,88.228,99.221z"/>
		<g>
			<g>
				<ellipse style="fill:#898F94;" cx="51.331" cy="80.606" rx="6.542" ry="6.606"/>
				<g>
					<g>
						<g>
							<ellipse style="fill:#263138;" cx="51.331" cy="80.606" rx="4.93" ry="4.978"/>
							<ellipse style="fill:#FFFFFF;" cx="50.084" cy="79.851" rx="1.854" ry="1.873"/>
						</g>
					</g>
				</g>
			</g>
			<g>
				<ellipse style="fill:#898F94;" cx="95.094" cy="80.606" rx="6.542" ry="6.606"/>
				<g>
					<g>
						<g>
							<ellipse style="fill:#263138;" cx="95.094" cy="80.606" rx="4.93" ry="4.978"/>
							<ellipse style="fill:#FFFFFF;" cx="93.848" cy="79.851" rx="1.854" ry="1.873"/>
						</g>
					</g>
				</g>
			</g>
		</g>
		<g>
			<polygon style="fill:#898F94;" points="73.212,46.926 64.119,109.001 82.306,109.001 			"/>
			<g>
				<path style="fill:#263138;" d="M73.212,106.317c-4.239,0-7.551,0.81-9.165,2.659c0,0,4.904,6.569,9.165,6.569
					c4.261,0,9.165-6.569,9.165-6.569C80.763,107.126,77.452,106.317,73.212,106.317z"/>
				<path style="opacity:0.8;fill:#3C454A;" d="M73.212,107.702c3.827,0,7.009,0.405,9.146,1.3c0.012-0.016,0.02-0.025,0.02-0.025
					c-1.614-1.85-4.926-2.659-9.165-2.659c-4.239,0-7.551,0.81-9.165,2.659c0,0,0.008,0.01,0.02,0.025
					C66.204,108.107,69.386,107.702,73.212,107.702z"/>
			</g>
		</g>
	</g>
	<path style="opacity:0.12;fill:#FFFFFF;" d="M73.212,20.812c-9.054,0-17.633,3.507-25.334,8.623
		c-7.704-4.868-23.63-13.171-30.299-9.056c-3.914,2.415-4.074,22.985,4.536,34.416c-2.935,3.879-5.264,7.334-6.87,9.843
		C8.487,69.918,2.75,74.307,0,74.307c0,0,6.402,20.428,28.635,33.752c4.95,4.463,13.19,8.78,26.081,10.929
		c4.181,4.232,12.282,8.168,18.496,8.168V20.812z"/>
</g>
<g>
</g>
<g>
</g>
<g>
</g>
<g>
</g>
<g>
</g>
<g>
</g>
<g>
</g>
<g>
</g>
<g>
</g>
<g>
</g>
<g>
</g>
<g>
</g>
<g>
</g>
<g>
</g>
<g>
</g>
</svg>
