<svg id="Layer_1" enable-background="new 0 0 512 512" height="512" viewBox="0 0 512 512" width="512" xmlns="http://www.w3.org/2000/svg"><g><g><path d="m110.821 240.8c-4.418 0-8 3.582-8 8v8h-8c0-8.836-7.164-16-16-16v48h24v8c0 4.418 3.582 8 8 8h40v-64z" fill="#f0915a"/></g><g><path d="m62.821 240.8h16c4.418 0 8 3.582 8 8v32c0 4.418-3.582 8-8 8h-16c-4.418 0-8-3.582-8-8v-32c0-4.418 3.582-8 8-8z" fill="#fab991"/></g><g><path d="m342.821 448.8c0-8.189-3.124-16.379-9.373-22.627l-54.627-54.627v-66.746h-128v18.746l-38.627 38.627c-6.002 6.001-9.373 14.141-9.373 22.627v64z" fill="#aac3d7"/></g><g><path d="m86.821 496.8h64c8.837 0 16-7.163 16-16v-32h-64c-17.673 0-32 14.327-32 32 0 8.837 7.163 16 16 16z" fill="#f0915a"/></g><g><path d="m278.821 304.8h-128v-112c0-17.673 14.327-32 32-32h112v63.778c0 15.794-4.675 31.235-13.436 44.376l-2.564 3.846z" fill="#f0915a"/></g><g><path d="m134.821 200.8v40c0 8.837 7.163 16 16 16h8c8.837 0 16-7.163 16-16v-40c0-4.418-3.582-8-8-8h-24c-4.418 0-8 3.582-8 8z" fill="#fab991"/></g><g><path d="m190.821 200.8v40c0 8.837 7.163 16 16 16h8c8.837 0 16-7.163 16-16v-40c0-4.418-3.582-8-8-8h-24c-4.418 0-8 3.582-8 8z" fill="#fab991"/></g><g><path d="m142.821 176.8h56c8.837 0 16-7.163 16-16v-72c0-13.255-10.745-24-24-24h-40c-13.255 0-24 10.745-24 24v72c0 8.837 7.163 16 16 16z" fill="#fab991"/></g><g><path d="m182.821 48.8h-40c-13.255 0-24 10.745-24 24v8c0 4.418 3.582 8 8 8h39.916c4.41 0 7.988 3.569 8 7.979l.084 32.021h-48c-4.418 0-8 3.582-8 8v60c0 2.209-1.791 4-4 4s-4-1.791-4-4v-2.667c0-2.209-1.791-4-4-4s-4 1.791-4 4v14.667c0 8.836 7.164 16 16 16h24c26.51 0 48-21.49 48-48h24c8.836 0 16-7.164 16-16v-64c0-26.51-21.49-48-48-48z" fill="#d7e6f0"/></g><g><path d="m190.821 144.8c-4.418 0-8-3.582-8-8v-16c0-4.418 3.582-8 8-8 8.837 0 16 7.163 16 16 0 8.837-7.163 16-16 16z" fill="#f0915a"/></g><g><path d="m154.821 152.8h-16c-2.209 0-4-1.791-4-4 0-2.209 1.791-4 4-4h16c2.209 0 4 1.791 4 4 0 2.209-1.791 4-4 4z" fill="#f0915a"/></g><g><path d="m228.154 62.133h-21.333v-1.333c0-6.627-5.373-12-12-12h-4v4c0 3.772 1.744 7.133 4.465 9.333h-12.465v-1.333c0-6.627-5.373-12-12-12h-4v4c0 3.772 1.744 7.133 4.465 9.333h-12.465v-1.333c0-6.627-5.373-12-12-12h-4v4c0 3.772 1.744 7.133 4.465 9.333h-12.465v-1.333c0-6.627-5.373-12-12-12h-4v4c0 6.627 5.373 12 12 12-6.627 0-12 5.373-12 12v4h4c6.627 0 12-5.373 12-12v-1.333h12.465c-2.722 2.2-4.465 5.562-4.465 9.333v4h4c6.627 0 12-5.373 12-12v-1.333h12.465c-2.722 2.2-4.465 5.562-4.465 9.333v4h4c6.627 0 12-5.373 12-12v-1.333h12.465c-2.722 2.2-4.465 5.562-4.465 9.333v4h4c6.627 0 12-5.373 12-12v-1.333h21.333c1.473 0 2.667-1.194 2.667-2.667s-1.194-2.667-2.667-2.667z" fill="#82aa41"/></g><g><path d="m450.285 48.8h-75.464v-8c0-4.418-3.582-8-8-8h-120v-8.945c0-3.896-3.159-7.055-7.055-7.055-.627 0-1.251.083-1.856.249l-83.746 22.84c-1.973.538-3.342 2.331-3.342 4.376 0 2.505 2.031 4.536 4.536 4.536h75.464v8c0 4.418 3.582 8 8 8h120v8.945c0 3.896 3.159 7.055 7.055 7.055.627 0 1.251-.083 1.856-.249l83.746-22.84c1.973-.538 3.342-2.331 3.342-4.376 0-2.505-2.031-4.536-4.536-4.536z" fill="#faa51e"/></g><g><path d="m310.821 16.8h-32c-4.418 0-8 3.582-8 8s3.582 8 8 8v32c0 8.836 7.164 16 16 16h32v-48c0-8.836-7.164-16-16-16z" fill="#f0915a"/></g><g><path d="m334.821 80.8h-48c-4.418 0-8 3.582-8 8v72c-17.673 0-32 14.327-32 32s14.327 32 32 32h32c17.673 0 32-14.327 32-32v-104c0-4.418-3.582-8-8-8z" fill="#fab991"/></g><g><path d="m342.821 448.8c0-8.189-3.124-16.379-9.373-22.627l-54.627-54.627v-98.746c-17.673 0-32-14.327-32-32v-48c0-17.673 14.327-32 32-32h-16c-17.673 0-32 14.327-32 32 0 44.183-35.817 80-80 80v32h64v80c0 8.487 3.371 16.626 9.373 22.627l41.373 41.373z" fill="#d7e6f0"/></g><g><path d="m342.821 448.8v32c0 8.837-7.163 16-16 16h-80c-8.837 0-16-7.163-16-16 0-17.673 14.327-32 32-32z" fill="#fab991"/></g></g></svg>